<?xml version="1.0" encoding="UTF-8" standalone="no"?>
<svg
   xmlns:dc="http://purl.org/dc/elements/1.1/"
   xmlns:cc="http://creativecommons.org/ns#"
   xmlns:rdf="http://www.w3.org/1999/02/22-rdf-syntax-ns#"
   xmlns:svg="http://www.w3.org/2000/svg"
   xmlns="http://www.w3.org/2000/svg"
   xmlns:sodipodi="http://sodipodi.sourceforge.net/DTD/sodipodi-0.dtd"
   xmlns:inkscape="http://www.inkscape.org/namespaces/inkscape"
   viewBox="0 0 1019.04 201.923"
   version="1.1"
   id="svg450"
   sodipodi:docname="container-158362.svg"
   inkscape:version="0.92.2 (5c3e80d, 2017-08-06)">
  <metadata
     id="metadata454">
    <rdf:RDF>
      <cc:Work
         rdf:about="">
        <dc:format>image/svg+xml</dc:format>
        <dc:type
           rdf:resource="http://purl.org/dc/dcmitype/StillImage" />
      </cc:Work>
    </rdf:RDF>
  </metadata>
  <sodipodi:namedview
     pagecolor="#ffffff"
     bordercolor="#666666"
     borderopacity="1"
     objecttolerance="10"
     gridtolerance="10"
     guidetolerance="10"
     inkscape:pageopacity="0"
     inkscape:pageshadow="2"
     inkscape:window-width="2554"
     inkscape:window-height="1410"
     id="namedview452"
     showgrid="false"
     inkscape:zoom="10.551107"
     inkscape:cx="101.04724"
     inkscape:cy="37.635176"
     inkscape:window-x="1920"
     inkscape:window-y="24"
     inkscape:window-maximized="0"
     inkscape:current-layer="svg450" />
  <defs
     id="defs82">
    <linearGradient
       id="f"
       x1="569"
       x2="569.36"
       y1="333.06"
       y2="436"
       gradientUnits="userSpaceOnUse"
       gradientTransform="translate(-56.779,-271.17)">
      <stop
         stop-color="#5b5b5b"
         offset="0"
         id="stop2" />
      <stop
         offset="1"
         id="stop4" />
    </linearGradient>
    <linearGradient
       id="e"
       x1="833.12"
       x2="843.69"
       y1="304.66"
       y2="304.62"
       gradientUnits="userSpaceOnUse"
       gradientTransform="translate(-56.779,-271.17)">
      <stop
         stop-color="#272525"
         offset="0"
         id="stop7" />
      <stop
         stop-color="#8e5923"
         offset=".4837"
         id="stop9" />
      <stop
         stop-color="#fff"
         offset="1"
         id="stop11" />
    </linearGradient>
    <linearGradient
       id="d"
       x1="92.935"
       x2="1063.8"
       y1="463.75"
       y2="460.36"
       gradientUnits="userSpaceOnUse"
       gradientTransform="translate(-56.779,-271.17)">
      <stop
         stop-color="#b30000"
         offset="0"
         id="stop14" />
      <stop
         stop-color="#a70000"
         offset=".1094"
         id="stop16" />
      <stop
         stop-color="#a70000"
         offset=".1903"
         id="stop18" />
      <stop
         stop-color="#b30000"
         offset=".2794"
         id="stop20" />
      <stop
         stop-color="#a70000"
         offset=".3498"
         id="stop22" />
      <stop
         stop-color="#712121"
         offset=".4407"
         id="stop24" />
      <stop
         stop-color="#a70000"
         offset=".5004"
         id="stop26" />
      <stop
         stop-color="#712121"
         offset=".5897"
         id="stop28" />
      <stop
         stop-color="#a70000"
         offset=".6399"
         id="stop30" />
      <stop
         stop-color="#712626"
         offset=".7293"
         id="stop32" />
      <stop
         stop-color="#a70000"
         offset=".8204"
         id="stop34" />
      <stop
         stop-color="#7e2929"
         offset=".8701"
         id="stop36" />
      <stop
         stop-color="#670000"
         offset="1"
         id="stop38" />
    </linearGradient>
    <linearGradient
       id="c"
       x1="450.04"
       x2="450.08"
       y1="466.44"
       y2="477.49"
       gradientUnits="userSpaceOnUse"
       gradientTransform="translate(-56.779,-271.17)">
      <stop
         stop-color="#fff"
         offset="0"
         id="stop41" />
      <stop
         stop-color="#137feb"
         offset=".3709"
         id="stop43" />
      <stop
         stop-color="#fff"
         offset=".6248"
         id="stop45" />
      <stop
         stop-color="#137feb"
         offset="1"
         id="stop47" />
    </linearGradient>
    <linearGradient
       id="b"
       x1="69.376"
       x2="1065.5"
       y1="422.76"
       y2="449.74"
       gradientUnits="userSpaceOnUse"
       gradientTransform="translate(-56.779,-271.17)">
      <stop
         stop-color="#272525"
         offset="0"
         id="stop50" />
      <stop
         offset=".11"
         id="stop52" />
      <stop
         stop-color="#1e1e1e"
         offset=".1881"
         id="stop54" />
      <stop
         offset=".28"
         id="stop56" />
      <stop
         stop-color="#272525"
         offset=".3495"
         id="stop58" />
      <stop
         offset=".44"
         id="stop60" />
      <stop
         stop-color="#272525"
         offset=".4994"
         id="stop62" />
      <stop
         offset=".59"
         id="stop64" />
      <stop
         stop-color="#272525"
         offset=".6407"
         id="stop66" />
      <stop
         stop-color="#272525"
         offset=".7316"
         id="stop68" />
      <stop
         offset=".82"
         id="stop70" />
      <stop
         stop-color="#272525"
         offset=".8702"
         id="stop72" />
      <stop
         offset="1"
         id="stop74" />
    </linearGradient>
    <linearGradient
       id="a"
       x1="800.87"
       x2="793.51"
       y1="308.78"
       y2="309.13"
       gradientUnits="userSpaceOnUse"
       gradientTransform="translate(-56.779,-271.17)">
      <stop
         stop-color="#fff"
         offset="0"
         id="stop77" />
      <stop
         stop-color="#7f7f7f"
         offset="1"
         id="stop79" />
    </linearGradient>
  </defs>
  <path
     inkscape:connector-curvature="0"
     style="fill:url(#f);fill-rule:evenodd"
     id="path84"
     d="m 105.774,136.846 0.291,-8.308 -5.113,-0.303 -0.303,4.795 -2.239,-0.632 0.303,-4.793 -4.155,-0.306 0.616,-6.71 0.963,0.954 0.011,3.196 2.556,0.31 -0.012,-3.515 13.657,-23.051 196.808,0.272 2.365,36.734 4.902,-60.082 56.222,-2.433 3.872,11.169 0.831,54.631 2.235,-0.328 2.632,-69.977 58.466,0.434 3.534,5.099 3.104,65.485 3.514,-0.013 0.73,-65.497 62.3,-0.538 2.902,8.296 57.524,4.274 4.794,-0.018 -0.28,11.503 2.236,-0.008 0.261,-16.615 7.987,-0.026 62.354,15.117 36.1,-0.765 27.156,0.225 0.035,9.904 4.795,0.303 0.036,10.542 82.917,-43.101 8.307,-0.029 -0.018,-5.111 133.871,1.449 0.46,39.296 71.57,1.028 0.86,62.936 -2.56,0.01 0.29,-7.67 -1.91,0.007 0.02,7.349 -1.91,0.326 -0.03,-7.668 -21.09,0.073 0.04,9.585 -2.88,0.011 -0.03,-9.585 -0.96,0.004 0.03,9.584 -2.87,0.01 -0.04,-9.585 -38.97,0.136 -802.916,-9.017 z" />
  <path
     style="fill:#636363;fill-rule:evenodd"
     inkscape:connector-curvature="0"
     id="path86"
     d="m 954.751,163.914 62.31,-0.217 0.03,9.904 -62.3,0.217 z" />
  <path
     style="fill:none;stroke:#777777;stroke-width:2"
     inkscape:connector-curvature="0"
     id="path88"
     d="m 173.213,144.278 523.975,2.643 0.028,7.988 8.625,-0.03 -0.027,-7.668 17.892,-0.062" />
  <path
     style="fill:none;stroke:#777777;stroke-width:1.33329999"
     inkscape:connector-curvature="0"
     id="path90"
     d="m 809.651,147.17 141.22,2.701" />
  <path
     style="fill:none;stroke:#cbcbcb;stroke-width:1.33329999"
     inkscape:connector-curvature="0"
     id="path92"
     d="m 76.951,74.71 25.42,47.205" />
  <path
     style="fill-rule:evenodd"
     inkscape:connector-curvature="0"
     id="path94"
     d="m 801.045,61.894 0.265,-15.017 -14.376,0.05 0.052,14.698 z" />
  <path
     style="fill-rule:evenodd"
     inkscape:connector-curvature="0"
     id="path96"
     d="m 785.31,39.265 14.696,-0.051 -2.897,-6.7 -0.028,-7.987 -2.237,0.008 -3.507,2.248 0.023,6.71 -3.195,0.012 -2.556,0.008 z" />
  <path
     inkscape:connector-curvature="0"
     style="fill:url(#e);fill-rule:evenodd"
     id="path98"
     d="m 780.13,19.794 6.73,5.728 -1.272,1.601 0.068,19.808 -9.264,0.354 -0.072,-20.768 z" />
  <path
     inkscape:connector-curvature="0"
     style="fill:url(#d);fill-rule:evenodd"
     id="path100"
     d="m 36.765,182.5 -0.5893,15.708 338.67,2.755 197.45,-0.179 266.07,-0.929 154.59,-1.562 12.09,-10.75 z" />
  <path
     inkscape:connector-curvature="0"
     style="fill:url(#c);fill-rule:evenodd;stroke:#000000;stroke-width:0.13333"
     id="path102"
     d="m 26.105,197.841 c 4.8533,-1.622 10.1973,-2.979 23.98,0.172 9.78,-1.864 18.303,-4.112 37.233,-3.192 14.647,-1.307 23.614,-0.699 28.067,1.433 9.493,-0.928 25.707,-0.388 47.455,1.365 6.777,-2.028 13.052,-4.77 24.745,0.168 3.164,-2.63 13.389,-1.058 23.471,0.428 2.506,-1.478 8.025,-2.045 19.385,-0.832 8.587,-0.469 17.176,-0.474 25.767,0.419 9.009,-1.247 18.024,-1.056 27.042,0.416 10.802,-1.54 22.184,-0.791 33.675,0.393 9.013,0.007 18.027,-0.672 27.045,0.926 3.362,-1.491 8.448,-1.271 14.54,-0.051 6.802,-0.304 13.603,-0.731 20.407,-0.325 13.093,-0.943 26.189,-0.471 39.289,0.628 7.092,-0.162 14.422,-0.086 22.195,0.432 7.14,-0.727 14.283,-0.966 21.427,-0.33 3.654,-0.478 7.312,-0.41 10.972,0.472 3.722,-0.88 7.92,-1.288 13.008,-0.81 8.046,-1.36 13.81,-0.423 19.134,0.953 15.899,-1.004 31.8,-1.46 47.704,-0.421 14.15,-1.464 27.763,-1.576 40.562,0.368 15.048,-1.048 30.1,-0.986 45.152,-0.667 2.289,-1.472 6.03,-1.788 11.733,-0.552 10.88,-0.916 21.767,-0.475 32.655,0.651 5.121,-1.475 9.836,-1.296 14.285,-0.05 14.281,-1.194 28.569,-1.093 42.855,-0.914 12.682,-0.872 25.236,-1.22 37.248,0.634 8.754,-1.252 17.51,-1.816 26.274,-0.345 6.564,-2.049 15.447,-2.453 26.782,-1.116 7.82,-0.936 15.642,-1.187 23.469,-0.081 8.624,-0.556 17.211,-1.176 26.531,-0.347 4.76,-0.275 9.521,-0.461 14.284,-0.051 8.672,-0.704 17.344,-1.004 26.02,-0.345 5.354,-0.692 10.71,-0.899 16.073,0.453 4.587,-1.545 9.182,-1.732 13.772,-0.557 8.84,-0.921 17.68,-1.556 26.53,-1.115 6.21,-0.441 12.41,-1.016 18.62,-0.064 3.65,-2.242 7.31,-1.464 10.97,-0.293 3.14,0.333 4.94,1.341 5.37,3.043 l -84.689,2.592 -150.253,0.524 -424.237,-0.05 -321.695,-2.449 z" />
  <path
     style="fill:#dbdbdb;fill-rule:evenodd"
     inkscape:connector-curvature="0"
     id="path104"
     d="m 73.071,133.13 0.488,-79.593 3.315,-0.012 -0.485,79.849 z" />
  <path
     style="fill:#dbdbdb;fill-rule:evenodd"
     inkscape:connector-curvature="0"
     id="path106"
     d="m 69.205,47.945 0.296,11.733 4.592,0.239 -0.007,-2.042 -1.786,-0.248 -1.308,-9.18 z" />
  <path
     style="fill:#a7a7a7;fill-rule:evenodd"
     inkscape:connector-curvature="0"
     id="path108"
     d="m 71.6,76.253 2.805,-0.01 -0.64,35.46 -1.787,0.007 -0.008,-2.04 -1.274,0.004 0.229,-7.399 -4.08,0.27 -0.008,-2.296 3.571,-0.012 -0.007,-1.787 1.276,-0.004 z" />
  <path
     style="fill:none;stroke:#dbdbdb;stroke-width:1.33329999"
     inkscape:connector-curvature="0"
     id="path110"
     d="M 25.11,132.28 72.106,74.973" />
  <path
     style="fill:none;stroke:#cbcbcb;stroke-width:1.33329999"
     inkscape:connector-curvature="0"
     id="path112"
     d="M 41.182,132.23 71.597,75.491" />
  <path
     style="fill:none;stroke:#dbdbdb;stroke-width:1.33329999"
     inkscape:connector-curvature="0"
     id="path114"
     d="M 101.891,131.76 76.439,74.96" />
  <path
     style="fill:#777777;fill-rule:evenodd"
     inkscape:connector-curvature="0"
     id="path116"
     d="m 74.321,53.54 0.239,-4.593 1.275,-0.004 0.017,4.847 z" />
  <path
     style="fill:none;stroke:#ffffff;stroke-width:2"
     inkscape:connector-curvature="0"
     id="path118"
     d="m 199.408,149.787 -0.035,-9.949 4.081,-0.015 0.036,10.204" />
  <path
     style="fill:none;stroke:#ffffff;stroke-width:2"
     inkscape:connector-curvature="0"
     id="path120"
     d="m 269.564,150.307 -0.035,-9.949 4.081,-0.015 0.035,10.204" />
  <path
     style="fill:none;stroke:#ffffff;stroke-width:2"
     inkscape:connector-curvature="0"
     id="path122"
     d="m 338.954,151.086 -0.034,-9.949 4.081,-0.014 0.036,10.204" />
  <path
     style="fill:none;stroke:#ffffff;stroke-width:2"
     inkscape:connector-curvature="0"
     id="path124"
     d="m 410.132,151.603 -0.035,-9.949 4.592,-0.016 0.035,10.204" />
  <path
     style="fill:none;stroke:#ffffff;stroke-width:2"
     inkscape:connector-curvature="0"
     id="path126"
     d="m 300.432,150.199 -0.035,-9.949 11.732,-0.041 0.036,10.204" />
  <path
     style="fill:none;stroke:#ffffff;stroke-width:2"
     inkscape:connector-curvature="0"
     id="path128"
     d="m 234.36,150.174 -0.035,-9.949 6.12,-0.022 0.036,10.204" />
  <path
     style="fill:none;stroke:#ffffff;stroke-width:2"
     inkscape:connector-curvature="0"
     id="path130"
     d="m 479.008,151.618 -0.035,-9.949 4.081,-0.015 0.036,10.204" />
  <path
     style="fill:none;stroke:#ffffff;stroke-width:2"
     inkscape:connector-curvature="0"
     id="path132"
     d="m 549.931,152.13 -0.035,-9.949 4.082,-0.015 0.034,10.204" />
  <path
     style="fill:none;stroke:#ffffff;stroke-width:2"
     inkscape:connector-curvature="0"
     id="path134"
     d="m 581.561,152.53 -0.034,-9.949 9.945,-0.035 0.036,10.204" />
  <path
     style="fill:none;stroke:#ffffff;stroke-width:2"
     inkscape:connector-curvature="0"
     id="path136"
     d="m 512.428,152.01 -0.035,-9.949 8.161,-0.028 0.036,10.204" />
  <path
     style="fill:none;stroke:#ffffff;stroke-width:2"
     inkscape:connector-curvature="0"
     id="path138"
     d="m 441.761,151.23 -0.034,-9.949 10.456,-0.036 0.036,10.204" />
  <path
     style="fill:none;stroke:#ffffff;stroke-width:2"
     inkscape:connector-curvature="0"
     id="path140"
     d="m 372.121,150.46 -0.035,-9.95 8.416,-0.029 0.036,10.204" />
  <path
     style="fill:none;stroke:#ffffff;stroke-width:2"
     inkscape:connector-curvature="0"
     id="path142"
     d="m 725.951,153.23 0.105,-42.777 17.858,-0.063 -0.356,44.133" />
  <path
     style="fill:#dbdbdb;fill-rule:evenodd"
     inkscape:connector-curvature="0"
     id="path144"
     d="m 744.752,57.575 -0.16,100.002 65.308,0.537 -0.819,-15.304 2.288,-2.048 -0.019,-5.612 -4.109,-7.895 -5.867,0.022 0.022,-66.838 -13.012,-0.209 -0.044,-12.756 -15.055,-0.967 0.019,5.358 -15.051,0.052 -4.319,5.372 z" />
  <path
     style="fill:none;stroke:#ffffff;stroke-width:2.66669989"
     inkscape:connector-curvature="0"
     id="path146"
     d="m 187.149,146.003 0.023,6.376 6.121,-0.021 -0.021,-5.979" />
  <path
     style="fill:none;stroke:#ffffff;stroke-width:2.66669989"
     inkscape:connector-curvature="0"
     id="path148"
     d="m 206.793,146.445 0.023,6.377 12.497,-0.044 -0.021,-5.979" />
  <path
     style="fill:none;stroke:#ffffff;stroke-width:2.66669989"
     inkscape:connector-curvature="0"
     id="path150"
     d="m 242.001,146.83 0.021,6.376 12.497,-0.043 -0.021,-5.979" />
  <path
     style="fill:none;stroke:#ffffff;stroke-width:2.66669989"
     inkscape:connector-curvature="0"
     id="path152"
     d="m 281.028,146.186 0.022,6.376 6.63,-0.023 -0.02,-5.978" />
  <path
     style="fill:none;stroke:#ffffff;stroke-width:2.66669989"
     inkscape:connector-curvature="0"
     id="path154"
     d="m 326.181,146.029 0.023,6.376 5.864,-0.02 -0.022,-5.979" />
  <path
     style="fill:none;stroke:#ffffff;stroke-width:2.66669989"
     inkscape:connector-curvature="0"
     id="path156"
     d="m 346.081,147.23 0.021,6.376 12.24,-0.043 -0.021,-5.978" />
  <path
     style="fill:none;stroke:#ffffff;stroke-width:2.66669989"
     inkscape:connector-curvature="0"
     id="path158"
     d="m 383.842,148.122 0.023,6.376 12.24,-0.043 -0.021,-5.978" />
  <path
     style="fill:none;stroke:#ffffff;stroke-width:2.66669989"
     inkscape:connector-curvature="0"
     id="path160"
     d="m 465.731,147.33 0.022,6.377 6.628,-0.024 -0.02,-5.979" />
  <path
     style="fill:none;stroke:#ffffff;stroke-width:2.66669989"
     inkscape:connector-curvature="0"
     id="path162"
     d="m 486.393,148.018 0.023,6.377 11.985,-0.042 -0.021,-5.979" />
  <path
     style="fill:none;stroke:#ffffff;stroke-width:2.66669989"
     inkscape:connector-curvature="0"
     id="path164"
     d="m 523.386,148.654 0.023,6.377 11.985,-0.042 -0.021,-5.979" />
  <path
     style="fill:none;stroke:#ffffff;stroke-width:2.66669989"
     inkscape:connector-curvature="0"
     id="path166"
     d="m 560.886,148.523 0.023,6.378 5.863,-0.022 -0.02,-5.978" />
  <path
     style="fill:none;stroke:#ffffff;stroke-width:2.66669989"
     inkscape:connector-curvature="0"
     id="path168"
     d="m 859.878,151.561 0.023,6.377 5.864,-0.02 -0.021,-5.979" />
  <path
     style="fill:none;stroke:#ffffff;stroke-width:2.66669989"
     inkscape:connector-curvature="0"
     id="path170"
     d="m 891.769,152.215 0.023,6.376 11.73,-0.04 -0.021,-5.978" />
  <path
     style="fill:none;stroke:#ffffff;stroke-width:2"
     inkscape:connector-curvature="0"
     id="path172"
     d="m 848.921,155.43 -0.035,-9.949 4.845,-0.016 0.036,10.204" />
  <path
     style="fill:none;stroke:#ffffff;stroke-width:2"
     inkscape:connector-curvature="0"
     id="path174"
     d="m 879.789,155.83 -0.035,-9.949 9.436,-0.032 0.035,10.204" />
  <path
     style="fill:none;stroke:#ffffff;stroke-width:2"
     inkscape:connector-curvature="0"
     id="path176"
     d="m 917.8,156.209 -0.035,-9.95 4.589,-0.016 0.036,10.204" />
  <path
     style="fill:none;stroke:#ffffff;stroke-width:2"
     inkscape:connector-curvature="0"
     id="path178"
     d="m 947.121,157.13 -0.03,-9.949 4.58,-0.016 0.04,10.204" />
  <path
     style="fill:none;stroke:#ffffff;stroke-width:2"
     inkscape:connector-curvature="0"
     id="path180"
     d="m 955.361,173.17 -0.04,-9.949 4.34,-0.016 0.03,10.204" />
  <path
     style="fill:none;stroke:#ffffff;stroke-width:2"
     inkscape:connector-curvature="0"
     id="path182"
     d="m 984.421,173.83 -0.03,-9.948 4.33,-0.016 0.04,10.204" />
  <path
     style="fill:#ffffff;fill-rule:evenodd"
     inkscape:connector-curvature="0"
     id="path184"
     d="m 748.61,139.706 61.736,0.039 -1.777,2.558 0.045,12.755 -4.082,0.013 -0.046,-12.754 -4.336,0.016 0.046,13.009 -3.572,0.012 -0.046,-13.265 -21.682,0.076 0.042,12.5 -5.101,0.273 -0.044,-12.756 -6.377,0.023 -0.467,12.757 -4.847,-0.239 -0.044,-12.5 -4.592,0.016 0.047,13.266 -2.041,0.006 -0.047,-13.265 -3.06,0.011 z" />
  <path
     style="fill-rule:evenodd"
     inkscape:connector-curvature="0"
     id="path186"
     d="m 749.618,62.917 2.806,-0.011 0.013,3.827 -2.805,0.01 z" />
  <path
     style="fill-rule:evenodd"
     inkscape:connector-curvature="0"
     id="path188"
     d="m 757.618,62.889 2.806,-0.011 0.013,3.827 -2.805,0.01 z" />
  <path
     style="fill-rule:evenodd"
     inkscape:connector-curvature="0"
     id="path190"
     d="m 749.713,89.917 2.805,-0.011 0.014,3.827 -2.806,0.01 z" />
  <path
     style="fill-rule:evenodd"
     inkscape:connector-curvature="0"
     id="path192"
     d="m 757.713,89.889 2.805,-0.011 0.014,3.827 -2.806,0.01 z" />
  <path
     style="fill-rule:evenodd"
     inkscape:connector-curvature="0"
     id="path194"
     d="m 766.713,89.857 2.805,-0.01 0.014,3.827 -2.806,0.009 z" />
  <path
     style="fill-rule:evenodd"
     inkscape:connector-curvature="0"
     id="path196"
     d="m 792.071,118.34 2.805,-0.009 0.013,3.827 -2.805,0.009 z" />
  <path
     style="fill-rule:evenodd"
     inkscape:connector-curvature="0"
     id="path198"
     d="m 756.656,131.983 2.805,-0.01 0.013,3.826 -2.805,0.011 z" />
  <path
     style="fill-rule:evenodd"
     inkscape:connector-curvature="0"
     id="path200"
     d="m 764.656,131.955 2.805,-0.01 0.013,3.826 -2.805,0.011 z" />
  <path
     style="fill:#b7b7b7;fill-rule:evenodd"
     inkscape:connector-curvature="0"
     id="path202"
     d="m 775.681,75.071 20.919,-0.073 0.038,11.224 -20.917,0.073 z" />
  <path
     style="fill:none;stroke:#7a7a7a;stroke-width:1.33329999"
     inkscape:connector-curvature="0"
     id="path204"
     d="m 779.761,75.07 11.773,11.184" />
  <path
     style="fill:none;stroke:#7a7a7a;stroke-width:1.33329999"
     inkscape:connector-curvature="0"
     id="path206"
     d="m 785.651,80.65 -0.018,-5.101 5.886,5.865 0.016,4.592" />
  <path
     style="fill:none;stroke:#7a7a7a;stroke-width:1.33329999"
     inkscape:connector-curvature="0"
     id="path208"
     d="m 788.501,78.29 -0.032,4.914" />
  <path
     style="fill:#b7b7b7;fill-rule:evenodd"
     inkscape:connector-curvature="0"
     id="path210"
     d="m 775.73,89.071 20.919,-0.073 0.039,11.224 -20.919,0.072 z" />
  <path
     style="fill:none;stroke:#7a7a7a;stroke-width:1.33329999"
     inkscape:connector-curvature="0"
     id="path212"
     d="m 779.811,89.07 11.774,11.184" />
  <path
     style="fill:none;stroke:#7a7a7a;stroke-width:1.33329999"
     inkscape:connector-curvature="0"
     id="path214"
     d="m 785.701,94.65 -0.017,-5.102 5.885,5.866 0.016,4.592" />
  <path
     style="fill:none;stroke:#7a7a7a;stroke-width:1.33329999"
     inkscape:connector-curvature="0"
     id="path216"
     d="m 788.541,92.29 -0.031,4.914" />
  <path
     style="fill:#b7b7b7;fill-rule:evenodd"
     inkscape:connector-curvature="0"
     id="path218"
     d="m 775.777,102.326 20.917,-0.072 0.04,11.224 -20.918,0.072 z" />
  <path
     style="fill:none;stroke:#7a7a7a;stroke-width:1.33329999"
     inkscape:connector-curvature="0"
     id="path220"
     d="m 779.861,102.33 11.774,11.184" />
  <path
     style="fill:none;stroke:#7a7a7a;stroke-width:1.33329999"
     inkscape:connector-curvature="0"
     id="path222"
     d="m 785.741,107.9 -0.017,-5.102 5.885,5.866 0.016,4.592" />
  <path
     style="fill:none;stroke:#7a7a7a;stroke-width:1.33329999"
     inkscape:connector-curvature="0"
     id="path224"
     d="m 788.591,105.55 -0.03,4.914" />
  <path
     style="fill:#ff7f7f;fill-rule:evenodd"
     inkscape:connector-curvature="0"
     id="path226"
     d="m 749.297,117.254 2.805,-0.011 1.528,-1.025 3.058,-1.031 13.776,-0.048 -0.004,-1.276 6.888,-0.024 0.005,1.786 2.305,2.544 0.53,5.61 -1.775,3.323 -17.347,0.06 0.252,-0.767 -7.653,-0.228 -2.559,-2.032 -2.046,-2.033 z" />
  <path
     style="fill:#5b0000;fill-rule:evenodd;stroke:#5b0000;stroke-width:1.33329999"
     inkscape:connector-curvature="0"
     id="path228"
     d="m 752.111,120.05 25.765,-0.089" />
  <path
     style="fill:none;stroke:#ffffff;stroke-width:1.33329999"
     inkscape:connector-curvature="0"
     id="path230"
     d="m 786.831,127.33 20.153,-0.07" />
  <path
     style="fill:none;stroke:#ffffff;stroke-width:0.66667002"
     inkscape:connector-curvature="0"
     id="path232"
     d="m 749.121,139.449 -0.017,-4.592 30.868,0.148" />
  <path
     style="fill:none;stroke:#ffffff;stroke-width:0.66667002"
     inkscape:connector-curvature="0"
     id="path234"
     d="m 780.241,140.11 -0.299,-12.755" />
  <path
     style="fill:none;stroke:#ffffff;stroke-width:0.66667002"
     inkscape:connector-curvature="0"
     id="path236"
     d="m 786.121,141.36 -0.048,-13.775" />
  <path
     style="fill:#ffffff;fill-rule:evenodd"
     inkscape:connector-curvature="0"
     id="path238"
     d="m 804.982,137.978 -9.184,0.032 -0.262,-2.295 2.55,-0.009 0.251,-1.531 6.632,-0.024 z" />
  <path
     style="fill:none;stroke:#ffffff;stroke-width:0.66667002"
     inkscape:connector-curvature="0"
     id="path240"
     d="m 789.681,139.05 -0.018,-4.848 5.335,-6.651" />
  <path
     style="fill:#bbbbbb;fill-rule:evenodd"
     inkscape:connector-curvature="0"
     id="path242"
     d="m 744.753,57.83 -4.356,-5.596 10.459,-0.037 -0.023,-6.632 22.449,-0.078 -0.233,6.378 -13.009,0.3 -5.083,5.63 z" />
  <path
     style="fill:#ff0000;fill-rule:evenodd;stroke:#000000;stroke-width:1.33329999"
     inkscape:connector-curvature="0"
     id="path244"
     d="m 738.084,47.395 10.458,-0.037 2.035,-2.048 0.023,6.633 -10.97,0.039 z" />
  <path
     style="fill:none;stroke:#f5f5f5;stroke-width:1.33329999"
     inkscape:connector-curvature="0"
     id="path246"
     d="m 769.761,59.02 -3.783,12.768" />
  <path
     style="fill:none;stroke:#f5f5f5;stroke-width:1.33329999"
     inkscape:connector-curvature="0"
     id="path248"
     d="M 755.001,72.08 759.8,58.032" />
  <path
     style="fill:#a7a7a7;fill-rule:evenodd"
     inkscape:connector-curvature="0"
     id="path250"
     d="m 753.936,57.543 0.014,4.338 5.348,-2.826 10.97,-0.037 4.344,2.025 -0.026,-7.398 -1.537,-1.78 -13.265,0.046 z" />
  <path
     inkscape:connector-curvature="0"
     style="fill:url(#b);fill-rule:evenodd;stroke:#000000;stroke-width:0.13333"
     id="path252"
     d="m 37.458,184.95 966.27,5.236 15.17,-18.596 -59.61,-1.117 -2.04,-15.224 c -153.17,-0.464 -306.11,-1.962 -458.6,-4.471 l -302.37,-1.483 c -14.994,-0.406 -28.72,-5.18 -30.351,-16.488 -55.469,-0.708 -110.36,-1.517 -165.83,-4.268 0.372,0.987 0.98,3.402 1.8014,4.586 11.804,17.037 22.233,30.962 35.559,51.825 z" />
  <path
     style="fill:#0000ff;fill-rule:evenodd;stroke:#000000;stroke-width:0.13333"
     inkscape:connector-curvature="0"
     id="path254"
     d="m 819.754,131.035 29.594,-0.102 0.045,13.009 -29.593,0.103 z" />
  <path
     style="fill:#670000;fill-rule:evenodd;stroke:#000000;stroke-width:0.13333"
     inkscape:connector-curvature="0"
     id="path256"
     d="m 819.708,117.77 29.593,-0.103 0.045,13.01 -29.592,0.102 z" />
  <path
     style="fill:#0000ff;fill-rule:evenodd;stroke:#000000;stroke-width:0.13333"
     inkscape:connector-curvature="0"
     id="path258"
     d="m 819.662,104.506 29.594,-0.104 0.045,13.009 -29.593,0.103 z" />
  <path
     style="fill:#0000ff;fill-rule:evenodd;stroke:#000000;stroke-width:0.13333"
     inkscape:connector-curvature="0"
     id="path260"
     d="m 819.616,91.221 29.593,-0.104 0.045,13.009 -29.593,0.104 z" />
  <path
     style="fill:#670000;fill-rule:evenodd;stroke:#000000;stroke-width:0.13333"
     inkscape:connector-curvature="0"
     id="path262"
     d="m 819.569,77.933 29.593,-0.104 0.046,13.009 -29.594,0.104 z" />
  <path
     style="fill:#670000;fill-rule:evenodd;stroke:#000000;stroke-width:0.13333"
     inkscape:connector-curvature="0"
     id="path264"
     d="m 819.524,64.71 29.592,-0.104 0.045,13.009 -29.592,0.104 z" />
  <path
     style="fill:none;stroke:#ffffff;stroke-width:2"
     inkscape:connector-curvature="0"
     id="path266"
     d="m 815.5,155.289 -0.035,-9.95 4.847,-0.017 0.034,10.204" />
  <path
     style="fill:#0000ff;fill-rule:evenodd;stroke:#000000;stroke-width:0.13333"
     inkscape:connector-curvature="0"
     id="path268"
     d="m 853.428,130.918 29.593,-0.103 0.045,13.01 -29.593,0.102 z" />
  <path
     style="fill:#670000;fill-rule:evenodd;stroke:#000000;stroke-width:0.13333"
     inkscape:connector-curvature="0"
     id="path270"
     d="m 853.381,117.653 29.593,-0.103 0.046,13.009 -29.594,0.103 z" />
  <path
     style="fill:#670000;fill-rule:evenodd;stroke:#000000;stroke-width:0.13333"
     inkscape:connector-curvature="0"
     id="path272"
     d="m 853.336,104.387 29.592,-0.102 0.046,13.009 -29.593,0.103 z" />
  <path
     style="fill:#0000ff;fill-rule:evenodd;stroke:#000000;stroke-width:0.13333"
     inkscape:connector-curvature="0"
     id="path274"
     d="m 853.289,91.102 29.593,-0.103 0.046,13.01 -29.594,0.102 z" />
  <path
     style="fill:#0000ff;fill-rule:evenodd;stroke:#000000;stroke-width:0.13333"
     inkscape:connector-curvature="0"
     id="path276"
     d="m 853.242,77.814 29.594,-0.103 0.045,13.01 -29.593,0.102 z" />
  <path
     style="fill:#0000ff;fill-rule:evenodd;stroke:#000000;stroke-width:0.13333"
     inkscape:connector-curvature="0"
     id="path278"
     d="m 853.196,64.593 29.593,-0.104 0.045,13.009 -29.593,0.103 z" />
  <path
     style="fill:#777777;fill-rule:evenodd;stroke:#000000;stroke-width:0.13333"
     inkscape:connector-curvature="0"
     id="path280"
     d="m 888.632,130.799 60.199,-0.21 0.05,13.265 -60.203,0.211 z" />
  <path
     style="fill:#777777;fill-rule:evenodd;stroke:#000000;stroke-width:0.13333"
     inkscape:connector-curvature="0"
     id="path282"
     d="m 888.585,117.279 60.206,-0.21 0.04,13.265 -60.199,0.211 z" />
  <path
     style="fill:#777777;fill-rule:evenodd;stroke:#000000;stroke-width:0.13333"
     inkscape:connector-curvature="0"
     id="path284"
     d="m 888.538,104.014 60.203,-0.211 0.05,13.266 -60.206,0.21 z" />
  <path
     style="fill:#670000;fill-rule:evenodd;stroke:#000000;stroke-width:0.13333"
     inkscape:connector-curvature="0"
     id="path286"
     d="m 888.493,90.749 60.198,-0.211 0.05,13.265 -60.203,0.211 z" />
  <path
     style="fill:#670000;fill-rule:evenodd;stroke:#000000;stroke-width:0.13333"
     inkscape:connector-curvature="0"
     id="path288"
     d="m 888.446,77.483 60.205,-0.21 0.04,13.265 -60.198,0.211 z" />
  <path
     style="fill:#670000;fill-rule:evenodd;stroke:#000000;stroke-width:0.13333"
     inkscape:connector-curvature="0"
     id="path290"
     d="m 888.4,64.219 60.201,-0.21 0.05,13.265 -60.205,0.211 z" />
  <path
     style="fill:#670000;fill-rule:evenodd;stroke:#000000;stroke-width:0.13333"
     inkscape:connector-curvature="0"
     id="path292"
     d="m 957.571,149.181 60.21,-0.21 0.04,13.266 -60.2,0.209 z" />
  <path
     style="fill:#670000;fill-rule:evenodd;stroke:#000000;stroke-width:0.13333"
     inkscape:connector-curvature="0"
     id="path294"
     d="m 957.531,135.915 60.2,-0.209 0.05,13.265 -60.21,0.21 z" />
  <path
     style="fill:#777777;fill-rule:evenodd;stroke:#000000;stroke-width:0.13333"
     inkscape:connector-curvature="0"
     id="path296"
     d="m 957.481,122.65 60.2,-0.209 0.05,13.265 -60.2,0.209 z" />
  <path
     style="fill:#777777;fill-rule:evenodd;stroke:#000000;stroke-width:0.13333"
     inkscape:connector-curvature="0"
     id="path298"
     d="m 957.431,109.387 60.21,-0.21 0.04,13.265 -60.2,0.209 z" />
  <path
     style="fill:#0000ff;fill-rule:evenodd;stroke:#000000;stroke-width:0.13333"
     inkscape:connector-curvature="0"
     id="path300"
     d="m 656.48,128.525 29.593,-0.104 0.045,13.009 -29.593,0.104 z" />
  <path
     style="fill:#0000ff;fill-rule:evenodd;stroke:#000000;stroke-width:0.13333"
     inkscape:connector-curvature="0"
     id="path302"
     d="m 656.433,115.237 29.593,-0.104 0.046,13.009 -29.594,0.104 z" />
  <path
     style="fill:#0000ff;fill-rule:evenodd;stroke:#000000;stroke-width:0.13333"
     inkscape:connector-curvature="0"
     id="path304"
     d="m 656.386,102.014 29.594,-0.104 0.045,13.009 -29.592,0.104 z" />
  <path
     style="fill:#0000ff;fill-rule:evenodd;stroke:#000000;stroke-width:0.13333"
     inkscape:connector-curvature="0"
     id="path306"
     d="m 690.153,128.407 29.593,-0.104 0.046,13.01 -29.594,0.104 z" />
  <path
     style="fill:#0000ff;fill-rule:evenodd;stroke:#000000;stroke-width:0.13333"
     inkscape:connector-curvature="0"
     id="path308"
     d="m 690.106,115.119 29.594,-0.104 0.045,13.01 -29.593,0.104 z" />
  <path
     style="fill:#0000ff;fill-rule:evenodd;stroke:#000000;stroke-width:0.13333"
     inkscape:connector-curvature="0"
     id="path310"
     d="m 690.06,101.897 29.593,-0.104 0.045,13.009 -29.593,0.104 z" />
  <path
     style="fill:#ff8000;fill-rule:evenodd;stroke:#000000;stroke-width:0.13333"
     inkscape:connector-curvature="0"
     id="path312"
     d="m 592.704,128.262 60.202,-0.211 0.047,13.266 -60.204,0.209 z" />
  <path
     style="fill:#ff8000;fill-rule:evenodd;stroke:#000000;stroke-width:0.13333"
     inkscape:connector-curvature="0"
     id="path314"
     d="m 592.656,114.742 60.204,-0.211 0.046,13.266 -60.204,0.21 z" />
  <path
     style="fill:#ff8000;fill-rule:evenodd;stroke:#000000;stroke-width:0.13333"
     inkscape:connector-curvature="0"
     id="path316"
     d="m 592.609,101.477 60.204,-0.211 0.047,13.265 -60.204,0.211 z" />
  <path
     style="fill:#ff8000;fill-rule:evenodd;stroke:#000000;stroke-width:0.13333"
     inkscape:connector-curvature="0"
     id="path318"
     d="m 592.564,88.211 60.202,-0.21 0.047,13.265 -60.204,0.211 z" />
  <path
     style="fill:#670000;fill-rule:evenodd;stroke:#000000;stroke-width:0.13333"
     inkscape:connector-curvature="0"
     id="path320"
     d="m 592.517,74.946 60.204,-0.211 0.045,13.266 -60.202,0.21 z" />
  <path
     style="fill:#670000;fill-rule:evenodd;stroke:#000000;stroke-width:0.13333"
     inkscape:connector-curvature="0"
     id="path322"
     d="m 592.47,61.682 60.204,-0.211 0.047,13.266 -60.204,0.21 z" />
  <path
     style="fill:#ff8000;fill-rule:evenodd;stroke:#000000;stroke-width:0.13333"
     inkscape:connector-curvature="0"
     id="path324"
     d="m 521.017,127.511 60.204,-0.209 0.047,13.265 -60.204,0.21 z" />
  <path
     style="fill:#777777;fill-rule:evenodd;stroke:#000000;stroke-width:0.13333"
     inkscape:connector-curvature="0"
     id="path326"
     d="m 520.97,113.991 60.204,-0.209 0.046,13.265 -60.203,0.21 z" />
  <path
     style="fill:#777777;fill-rule:evenodd;stroke:#000000;stroke-width:0.13333"
     inkscape:connector-curvature="0"
     id="path328"
     d="m 520.921,100.73 60.204,-0.209 0.046,13.265 -60.204,0.209 z" />
  <path
     style="fill:#670000;fill-rule:evenodd;stroke:#000000;stroke-width:0.13333"
     inkscape:connector-curvature="0"
     id="path330"
     d="m 520.877,87.461 60.204,-0.21 0.047,13.266 -60.204,0.209 z" />
  <path
     style="fill:#670000;fill-rule:evenodd;stroke:#000000;stroke-width:0.13333"
     inkscape:connector-curvature="0"
     id="path332"
     d="m 520.832,74.195 60.202,-0.209 0.047,13.265 -60.204,0.21 z" />
  <path
     style="fill:#777777;fill-rule:evenodd;stroke:#000000;stroke-width:0.13333"
     inkscape:connector-curvature="0"
     id="path334"
     d="m 452.901,126.75 60.204,-0.211 0.045,13.266 -60.202,0.209 z" />
  <path
     style="fill:#777777;fill-rule:evenodd;stroke:#000000;stroke-width:0.13333"
     inkscape:connector-curvature="0"
     id="path336"
     d="m 452.854,113.23 60.203,-0.211 0.047,13.266 -60.204,0.21 z" />
  <path
     style="fill:#670000;fill-rule:evenodd;stroke:#000000;stroke-width:0.13333"
     inkscape:connector-curvature="0"
     id="path338"
     d="m 452.808,99.965 60.204,-0.211 0.045,13.265 -60.203,0.211 z" />
  <path
     style="fill:#670000;fill-rule:evenodd;stroke:#000000;stroke-width:0.13333"
     inkscape:connector-curvature="0"
     id="path340"
     d="m 452.761,86.699 60.204,-0.21 0.047,13.265 -60.204,0.211 z" />
  <path
     style="fill:#670000;fill-rule:evenodd;stroke:#000000;stroke-width:0.13333"
     inkscape:connector-curvature="0"
     id="path342"
     d="m 452.714,73.434 60.204,-0.211 0.047,13.266 -60.204,0.21 z" />
  <path
     style="fill:#670000;fill-rule:evenodd;stroke:#000000;stroke-width:0.13333"
     inkscape:connector-curvature="0"
     id="path344"
     d="m 379.752,72.69 60.204,-0.211 0.045,13.266 -60.203,0.21 z" />
  <path
     style="fill:#ff8000;fill-rule:evenodd;stroke:#000000;stroke-width:0.13333"
     inkscape:connector-curvature="0"
     id="path346"
     d="m 379.94,125.965 60.202,-0.211 0.047,13.265 -60.204,0.21 z" />
  <path
     style="fill:#ff8000;fill-rule:evenodd;stroke:#000000;stroke-width:0.13333"
     inkscape:connector-curvature="0"
     id="path348"
     d="m 379.892,112.445 60.204,-0.211 0.046,13.265 -60.204,0.211 z" />
  <path
     style="fill:#ff8000;fill-rule:evenodd;stroke:#000000;stroke-width:0.13333"
     inkscape:connector-curvature="0"
     id="path350"
     d="m 379.845,99.179 60.204,-0.21 0.047,13.265 -60.204,0.211 z" />
  <path
     style="fill:#670000;fill-rule:evenodd;stroke:#000000;stroke-width:0.13333"
     inkscape:connector-curvature="0"
     id="path352"
     d="m 379.8,85.914 60.202,-0.211 0.047,13.266 -60.204,0.21 z" />
  <path
     style="fill:#670000;fill-rule:evenodd;stroke:#000000;stroke-width:0.13333"
     inkscape:connector-curvature="0"
     id="path354"
     d="m 313.1,125.666 60.204,-0.209 0.046,13.265 -60.204,0.209 z" />
  <path
     style="fill:#ff8000;fill-rule:evenodd;stroke:#000000;stroke-width:0.13333"
     inkscape:connector-curvature="0"
     id="path356"
     d="m 313.053,112.147 60.204,-0.21 0.045,13.265 -60.202,0.209 z" />
  <path
     style="fill:#670000;fill-rule:evenodd;stroke:#000000;stroke-width:0.13333"
     inkscape:connector-curvature="0"
     id="path358"
     d="m 313.006,98.882 60.204,-0.211 0.047,13.266 -60.204,0.21 z" />
  <path
     style="fill:#670000;fill-rule:evenodd;stroke:#000000;stroke-width:0.13333"
     inkscape:connector-curvature="0"
     id="path360"
     d="m 312.961,85.617 60.203,-0.211 0.046,13.265 -60.204,0.211 z" />
  <path
     style="fill:#ff8000;fill-rule:evenodd;stroke:#000000;stroke-width:0.13333"
     inkscape:connector-curvature="0"
     id="path362"
     d="m 312.914,72.351 60.204,-0.21 0.046,13.265 -60.203,0.211 z" />
  <path
     style="fill:#670000;fill-rule:evenodd;stroke:#000000;stroke-width:0.13333"
     inkscape:connector-curvature="0"
     id="path364"
     d="m 240.14,125.41 60.204,-0.209 0.046,13.265 -60.204,0.209 z" />
  <path
     style="fill:#ff8000;fill-rule:evenodd;stroke:#000000;stroke-width:0.13333"
     inkscape:connector-curvature="0"
     id="path366"
     d="m 240.093,111.891 60.204,-0.21 0.045,13.265 -60.202,0.211 z" />
  <path
     style="fill:#ff8000;fill-rule:evenodd;stroke:#000000;stroke-width:0.13333"
     inkscape:connector-curvature="0"
     id="path368"
     d="m 240.046,98.626 60.204,-0.211 0.047,13.266 -60.204,0.21 z" />
  <path
     style="fill:#777777;fill-rule:evenodd;stroke:#000000;stroke-width:0.13333"
     inkscape:connector-curvature="0"
     id="path370"
     d="m 240.001,85.361 60.203,-0.211 0.046,13.265 -60.204,0.211 z" />
  <path
     style="fill:#777777;fill-rule:evenodd;stroke:#000000;stroke-width:0.13333"
     inkscape:connector-curvature="0"
     id="path372"
     d="m 239.954,72.095 60.204,-0.21 0.046,13.265 -60.203,0.211 z" />
  <path
     style="fill:#670000;fill-rule:evenodd;stroke:#000000;stroke-width:0.13333"
     inkscape:connector-curvature="0"
     id="path374"
     d="m 173.044,124.114 60.202,-0.209 0.047,13.264 -60.204,0.21 z" />
  <path
     style="fill:#670000;fill-rule:evenodd;stroke:#000000;stroke-width:0.13333"
     inkscape:connector-curvature="0"
     id="path376"
     d="m 172.996,110.594 60.204,-0.209 0.046,13.265 -60.204,0.209 z" />
  <path
     style="fill:#670000;fill-rule:evenodd;stroke:#000000;stroke-width:0.13333"
     inkscape:connector-curvature="0"
     id="path378"
     d="m 172.95,97.329 60.203,-0.21 0.047,13.266 -60.204,0.209 z" />
  <path
     style="fill:#670000;fill-rule:evenodd;stroke:#000000;stroke-width:0.13333"
     inkscape:connector-curvature="0"
     id="path380"
     d="m 172.904,84.063 60.204,-0.209 0.045,13.265 -60.203,0.21 z" />
  <path
     style="fill:#670000;fill-rule:evenodd;stroke:#000000;stroke-width:0.13333"
     inkscape:connector-curvature="0"
     id="path382"
     d="m 101.532,112.35 29.593,-0.104 0.045,13.009 -29.593,0.104 z" />
  <path
     style="fill:#670000;fill-rule:evenodd;stroke:#000000;stroke-width:0.13333"
     inkscape:connector-curvature="0"
     id="path384"
     d="m 101.485,99.062 29.593,-0.104 0.046,13.009 -29.594,0.104 z" />
  <path
     style="fill:#0000ff;fill-rule:evenodd;stroke:#000000;stroke-width:0.13333"
     inkscape:connector-curvature="0"
     id="path386"
     d="m 101.44,85.839 29.592,-0.104 0.046,13.01 -29.593,0.104 z" />
  <path
     style="fill:#0000ff;fill-rule:evenodd;stroke:#000000;stroke-width:0.13333"
     inkscape:connector-curvature="0"
     id="path388"
     d="m 133.205,112.239 29.593,-0.104 0.046,13.01 -29.594,0.104 z" />
  <path
     style="fill:#670000;fill-rule:evenodd;stroke:#000000;stroke-width:0.13333"
     inkscape:connector-curvature="0"
     id="path390"
     d="m 133.158,98.951 29.594,-0.104 0.045,13.01 -29.593,0.104 z" />
  <path
     style="fill:#0000ff;fill-rule:evenodd;stroke:#000000;stroke-width:0.13333"
     inkscape:connector-curvature="0"
     id="path392"
     d="m 133.112,85.729 29.593,-0.104 0.045,13.009 -29.593,0.104 z" />
  <path
     style="fill:#dbdbdb;fill-rule:evenodd"
     inkscape:connector-curvature="0"
     id="path394"
     d="m 752.424,45.13 4.716,-21.741 -1.598,0.005 -0.005,-1.277 11.183,-0.039 0.005,1.277 -1.917,0.007 0.018,5.432 6.44,14.035 1.559,-10.868 25.559,-0.09 0.009,2.556 -23.003,0.08 -1.245,9.588 1.601,1.274 -6.389,0.022 -7.725,-16.586 -2.878,-0.31 -3.454,16.626 z" />
  <path
     style="fill:none;stroke:#dbdbdb;stroke-width:1.33329999"
     inkscape:connector-curvature="0"
     id="path396"
     d="M 786.891,34.15 775.109,45.374" />
  <path
     inkscape:connector-curvature="0"
     style="fill:url(#a);fill-rule:evenodd"
     id="path398"
     d="m 739.928,34.95 0.961,0.636 0.04,11.501 1.917,-0.006 -0.04,-11.502 1.916,-0.006 1.272,-1.922 -0.01,-2.876 -1.927,-2.549 -3.513,0.332 -1.904,3.201 c 0.217,2.24 0.221,2.659 1.288,3.191 z" />
  <path
     style="fill:#20a8fc;fill-rule:evenodd"
     inkscape:connector-curvature="0"
     id="path400"
     d="m 785.964,47.249 14.389,-0.05 -0.027,-7.666 -14.696,0.05 z" />
  <path
     style="fill:none;stroke:#000000;stroke-width:1.33329999"
     inkscape:connector-curvature="0"
     id="path402"
     d="m 762.811,0.05 0.04,11.501" />
  <path
     style="fill:none;stroke:#000000;stroke-width:1.33329999"
     inkscape:connector-curvature="0"
     id="path404"
     d="m 769.871,9.93 -7.348,0.026" />
  <path
     style="fill:none;stroke:#000000;stroke-width:1.33329999"
     inkscape:connector-curvature="0"
     id="path406"
     d="M 767.301,5.14 761.55,5.16" />
  <path
     style="fill:none;stroke:#000000;stroke-width:1.33329999"
     inkscape:connector-curvature="0"
     id="path408"
     d="m 768.561,0.67 -6.07,0.021" />
  <path
     style="fill:none;stroke:#000000;stroke-width:1.33329999"
     inkscape:connector-curvature="0"
     id="path410"
     d="m 762.491,0.37 0.042,11.822" />
  <path
     style="fill:none;stroke:#000000;stroke-width:1.33329999"
     inkscape:connector-curvature="0"
     id="path412"
     d="m 729.721,130.83 12.46,-0.043" />
  <path
     style="fill:none;stroke:#000000;stroke-width:1.33329999"
     inkscape:connector-curvature="0"
     id="path414"
     d="m 744.001,102.99 -20.088,11.25 19.807,-0.388" />
  <path
     style="fill:none;stroke:#cbcbcb;stroke-width:1.33329999"
     inkscape:connector-curvature="0"
     id="path416"
     d="m 762.451,12.11 0.036,10.204" />
  <path
     style="fill:none;stroke:#cbcbcb;stroke-width:1.33329999"
     inkscape:connector-curvature="0"
     id="path418"
     d="m 762.471,18.01 4.336,-0.016" />
  <path
     style="fill:none;stroke:#cbcbcb;stroke-width:1.33329999"
     inkscape:connector-curvature="0"
     id="path420"
     d="m 768.581,13.96 -6.123,0.022" />
  <path
     style="fill:none;stroke:#dbdbdb;stroke-width:1.33329999"
     inkscape:connector-curvature="0"
     id="path422"
     d="m 757.581,5.49 0.057,16.583" />
  <path
     style="fill:#ffffff;fill-rule:evenodd"
     inkscape:connector-curvature="0"
     id="path424"
     d="M 753.245,6.015 760.898,5.989 760.892,4.203 753.24,4.23 Z" />
  <path
     style="fill:#ffffff;fill-rule:evenodd"
     inkscape:connector-curvature="0"
     id="path426"
     d="m 753.776,11.626 6.378,-0.023 -0.006,-1.785 -6.379,0.023 z" />
  <text
     xml:space="preserve"
     style="font-style:normal;font-weight:normal;font-size:30.28778076px;line-height:1.25;font-family:sans-serif;letter-spacing:0px;word-spacing:0px;fill:#ffffff;fill-opacity:1;stroke:none;stroke-width:0.75719458"
     x="28.215513"
     y="155.77574"
     id="text1445"><tspan
       sodipodi:role="line"
       id="tspan1443"
       x="28.215513"
       y="155.77574"
       style="font-style:normal;font-variant:normal;font-weight:normal;font-stretch:normal;font-size:20.19185448px;font-family:sans-serif;-inkscape-font-specification:'sans-serif, Normal';font-variant-ligatures:normal;font-variant-caps:normal;font-variant-numeric:normal;font-feature-settings:normal;text-align:start;writing-mode:lr-tb;text-anchor:start;stroke-width:0.75719458">Rahti</tspan></text>
  <g
     transform="translate(-10.330669,-63.690006)"
     id="g1499">
    <rect
       style="fill:#ffffff;fill-opacity:1;stroke-width:6.13979626;stroke-linecap:round;stroke-linejoin:miter;stroke-miterlimit:2.5999999;stroke-dasharray:none"
       id="rect1493"
       width="24.831516"
       height="15.732946"
       x="100.17906"
       y="203.43944" />
    <rect
       style="fill:#002f6c;fill-opacity:1;stroke-width:5.00297499;stroke-linecap:round;stroke-linejoin:miter;stroke-miterlimit:2.5999999;stroke-dasharray:none"
       id="rect1495"
       width="24.926294"
       height="3.4119642"
       x="100.17907"
       y="209.59993" />
    <rect
       style="fill:#002f6c;fill-opacity:1;stroke-width:3.95068479;stroke-linecap:round;stroke-linejoin:miter;stroke-miterlimit:2.5999999;stroke-dasharray:none"
       id="rect1497"
       width="15.543393"
       height="3.4119642"
       x="-219.12498"
       y="107.85599"
       transform="rotate(-90)"
       inkscape:transform-center-x="-6.9187054"
       inkscape:transform-center-y="2.5413125" />
  </g>
</svg>
