<?xml version="1.0" encoding="UTF-8" standalone="no"?>
<svg
   xmlns:dc="http://purl.org/dc/elements/1.1/"
   xmlns:cc="http://creativecommons.org/ns#"
   xmlns:rdf="http://www.w3.org/1999/02/22-rdf-syntax-ns#"
   xmlns:svg="http://www.w3.org/2000/svg"
   xmlns="http://www.w3.org/2000/svg"
   xmlns:sodipodi="http://sodipodi.sourceforge.net/DTD/sodipodi-0.dtd"
   xmlns:inkscape="http://www.inkscape.org/namespaces/inkscape"
   id="Layer_1"
   viewBox="0 0 145.51534 109.02557"
   version="1.1"
   sodipodi:docname="hadoop.svg"
   inkscape:version="0.92.2 (5c3e80d, 2017-08-06)"
   width="145.51534"
   height="109.02557">
  <metadata
     id="metadata29">
    <rdf:RDF>
      <cc:Work
         rdf:about="">
        <dc:format>image/svg+xml</dc:format>
        <dc:type
           rdf:resource="http://purl.org/dc/dcmitype/StillImage" />
      </cc:Work>
    </rdf:RDF>
  </metadata>
  <defs
     id="defs27" />
  <sodipodi:namedview
     pagecolor="#ffffff"
     bordercolor="#666666"
     borderopacity="1"
     objecttolerance="10"
     gridtolerance="10"
     guidetolerance="10"
     inkscape:pageopacity="0"
     inkscape:pageshadow="2"
     inkscape:window-width="1070"
     inkscape:window-height="466"
     id="namedview25"
     showgrid="false"
     inkscape:zoom="0.921875"
     inkscape:cx="52.77944"
     inkscape:cy="89.721324"
     inkscape:window-x="1920"
     inkscape:window-y="194"
     inkscape:window-maximized="0"
     inkscape:current-layer="Layer_1" />
  <style
     id="style2">.st0{fill:#ff0}.st1{fill:#ffc}.st2{fill:#cc0}</style>
  <path
     class="st0"
     d="m 53.603479,24.058545 -9.687092,1.546297 -8.822982,3.865734 -7.504082,4.729845 -7.140247,8.68655 -4.047653,4.275047 -3.865744,1.455341 -1.046022,-2.501362 1.819172,-2.592318 0.409308,-3.683823 1.227948,0.0455 1.318894,1.182462 -0.363834,-3.729302 -1.455338,-1.000543 0.04547,-1.409857 -3.456428,1.955609 -3.138067,3.683823 -0.6367143,3.31999 1.3643834,2.637795 1.2734128,4.502447 2.5468421,1.182464 2.683278,-0.136404 2.546841,-1.455341 -1.682736,8.595585 1.682736,9.550656 -1.864653,4.41149 -6.0942249,6.59449 1.0915039,3.91123 2.910676,4.54792 5.457518,3.82026 2.910669,0.40926 3.229029,0.091 -2.001082,8.23175 7.367637,3.00163 9.186818,1.22793 3.138075,-2.04656 0.227391,-5.54847 3.501909,-5.82135 0.227398,-4.59341 8.459143,0.5912 7.867914,-0.72763 -7.867914,4.72985 1.318898,5.68491 4.957242,7.73147 4.820807,2.04658 3.865736,-1.59178 1.591775,-3.13807 8.095307,-6.18519 1.591782,1.31891 12.688721,0.50028 2.546844,-2.04657 0.227399,-3.63835 -0.864103,-1.59177 -0.591204,-9.77805 -4.229569,-8.45915 0.727623,-3.72931 2.546835,1.31891 7.140255,6.63998 3.50191,0.22741 3.77478,-1.45534 3.86574,-2.91068 1.95562,-6.27614 11.36981,0.7277 6.91286,-2.6378 5.54846,-5.184639 4.00217,-7.50409 0.95508,-8.82298 -0.86411,-10.278316 -2.183,-9.186818 -2.18301,-2.956153 -3.00164,-0.955066 -5.32107,5.821351 -4.8208,1.682737 -4.22957,-7.003812 -4.27506,-3.91122 -2.27396,-1.455338 -9.18682,-7.640517 -7.367653,-4.002188 -7.367638,-0.591195 -8.595584,1.455338 -7.504081,2.774241 -5.230119,4.275052 -4.093132,4.957239 -4.229577,1.227942 -7.413126,7.003812"
     id="path4"
     inkscape:connector-curvature="0"
     style="fill:#ffff00;stroke-width:4.54792833" />
  <path
     class="st1"
     d="M 25.542759,45.888601 C 17.265528,55.575685 19.084701,67.26387 21.404144,78.77013 l -3.683827,-9.27779 -1.364376,-8.504615 0.409316,-8.732029 c 1.182459,-2.774234 2.319444,-5.548468 3.501902,-8.322704 1.72821,-2.592318 3.501908,-5.139158 5.230119,-7.731476 l 8.140788,-6.776417 c 2.910677,-1.273417 5.912307,-2.501363 8.868465,-3.729302 L 52.966765,24.331418 43.279681,35.382883 C 35.50272,37.929723 30.909315,39.61246 25.542759,45.888601"
     id="path6"
     inkscape:connector-curvature="0"
     style="fill:#ffffcc;stroke-width:4.54792833" />
  <path
     class="st1"
     d="m 64.563987,16.418027 c -5.77587,5.639432 -8.91394,9.869001 -12.597765,16.4635 -2.637795,4.729846 -5.548474,9.232296 -8.322706,13.871178 -1.409858,2.364921 -1.546301,4.320532 -1.955609,7.04929 -1.364383,-1.591775 -2.728759,-3.229028 -4.047661,-4.8208 0.636706,-1.95561 1.27342,-3.865742 1.955609,-5.821351 2.183007,-3.956697 4.366014,-7.867916 6.594502,-11.824614 4.638883,-4.593412 9.27777,-9.141339 13.916657,-13.734744 1.500818,-0.409351 2.956155,-0.773151 4.456973,-1.182459 M 93.034022,2.501361 c -4.59342,1.728217 -12.279411,2.319443 -12.825171,7.595043 -0.363857,3.774782 0.272857,5.639427 2.546842,9.641609 -5.593947,-5.775873 -7.003803,-4.91176 -17.827876,-3.092595 1.546299,-2.183 3.092594,-4.366007 4.638893,-6.594495 2.728752,-1.682729 5.412029,-3.365465 8.140788,-5.048202 L 88.167729,2.683277 c 1.637256,-0.091 3.22903,-0.13642 4.866293,-0.181924"
     id="path8"
     inkscape:connector-curvature="0"
     style="fill:#ffffcc;stroke-width:4.54792833" />
  <path
     class="st2"
     d="m 105.76822,74.13124 c 1.54629,0.95507 1.50081,1.63725 1.22793,2.27396 1.22795,-0.50028 2.41041,-0.95506 3.63835,-1.45533 0.77314,-1.04602 1.59177,-2.09205 2.36492,-3.18355 0.59121,-1.50082 1.18247,-3.00163 1.72822,-4.50245 l -2.22849,-1.68274 -9.77805,1.22795 c -0.22741,0.6367 -0.50028,1.31889 -0.72769,1.95561 0.091,0.95505 0.1364,1.86465 0.2274,2.81971 0.31836,0.54578 0.6367,1.0915 0.95507,1.68273 0.50027,0.22741 0.95505,0.50027 1.45533,0.7277 0.36386,0.0909 0.72771,0.0909 1.13699,0.13641 m -0.90958,-16.690881 c -4.91176,1.409854 -4.866288,1.819167 -6.321622,6.639974 1.910142,-3.047116 3.319992,-4.593411 6.321622,-6.639974 m 32.51769,-36.337951 c -0.86411,0.409276 -1.7282,0.5912 -2.27396,1.409855 -1.18246,1.728214 -2.18301,3.138072 -4.09314,4.366011 -0.95507,0.5912 -2.00108,1.000543 -3.00163,1.318901 -0.8641,0.272848 -1.36438,0.0455 -2.09205,0.545776 0.45476,0.09093 0.86411,0.136424 1.3189,0.227425 h 2.8652 l 3.54738,-2.183005 c 0.6822,-0.727701 1.36438,-1.455341 2.09205,-2.183005 0.50027,-1.182461 1.0915,-2.364922 1.63725,-3.501906 M 59.424824,31.971938 c -1.910129,5.2756 -3.592862,9.778049 -6.503535,14.553372 3.729302,-4.047652 6.003266,-7.458603 8.140793,-12.006531 0.818623,-1.773692 1.000543,-3.865741 3.319985,-3.092593 0.09095,1.773692 0.500279,3.547384 0.591231,5.275598 C 66.24672,27.74237 69.748625,23.967583 77.98037,20.511161 l -6.958324,0.818627 c -2.183007,0.500275 -4.366014,0.955065 -6.549022,1.455333 -1.091501,1.546297 -2.137526,3.138072 -3.229027,4.684368 -0.636709,1.50082 -1.22794,3.001631 -1.819173,4.502449 m 15.91775,-0.227395 c 1.773699,8.322706 4.320533,16.327061 5.412037,24.78621 0.727699,5.502992 0.818623,8.140797 -1.955616,12.870647 -3.001625,-0.18191 -4.911757,0.1364 -7.822431,1.09149 -11.642696,3.82026 -18.328152,9.41422 -26.15059,-1.86465 l 7.504084,3.54739 c 1.773691,-0.36386 3.547385,-0.6822 5.366552,-1.04602 3.138075,-1.81917 6.321626,-3.68383 9.459695,-5.503 2.455881,-0.50027 4.911761,-0.95506 7.367646,-1.455338 0.818623,-3.319991 1.591773,-6.639975 2.410397,-9.959965 L 75.16066,41.022316 c -0.091,-2.092042 -0.136405,-4.138613 -0.227407,-6.230665 0.09091,-1.04602 0.272858,-2.046564 0.40926,-3.047107 m 20.01089,51.528026 c -1.000547,6.77643 2.228474,10.41477 0.909584,12.27942 -0.363861,0.54578 -0.909584,1.45533 -1.455343,1.72821 -2.046567,0.90958 -4.866283,-0.1819 -5.048201,0.36386 h -6.730931 c -0.909586,-0.36386 -1.819173,-0.77315 -2.683278,-1.13699 1.364376,-1.63725 2.774233,-3.27451 4.138608,-4.86629 1.364384,-2.95615 2.683286,-5.86682 4.047661,-8.82297 l 2.592316,-8.91395 h 1.364379 c 0.955074,3.04712 1.91014,6.23067 2.865205,9.36873"
     id="path10"
     inkscape:connector-curvature="0"
     style="fill:#cccc00;stroke-width:4.54792833" />
  <path
     class="st2"
     d="m 84.029114,63.62552 c 0.545781,3.09259 1.500819,3.82026 2.956157,6.77642 -0.955068,4.86629 -2.501361,10.59667 -4.366006,14.9172 -0.773151,1.81918 -1.409858,2.81973 -2.819722,4.1841 -2.319435,2.36492 -4.68436,4.4115 -7.32216,6.45806 -1.91013,1.45534 -3.229032,0.7277 -5.593955,0.40927 -1.000544,1.81915 -1.273422,2.81971 -3.138069,3.72929 -2.819716,1.40986 -5.366558,-1.63725 -7.595042,-3.41094 1.591775,2.50136 3.229031,5.00271 4.820807,7.50408 1.091501,1.04602 2.228483,2.09204 3.319985,3.13807 l 2.819715,0.40926 c 1.227941,-0.77316 2.501362,-1.54629 3.729301,-2.27396 0.636709,-1.22795 1.318903,-2.50136 1.955612,-3.7293 1.364379,-1.04603 2.774235,-2.09206 4.138611,-3.13808 1.682729,-1.45534 3.410947,-2.91067 5.093683,-4.36601 1.091503,-1.50081 2.137526,-3.04711 3.22903,-4.54793 0.95506,-1.81917 1.955609,-3.59286 2.910668,-5.41204 1.22794,-3.7293 2.501369,-7.4586 3.729301,-11.23338 0.09087,-1.40986 0.227408,-2.81971 0.318361,-4.27505 -1.546302,-0.68217 -3.138083,-1.36435 -4.684376,-2.09202 -1.091503,-1.0915 -2.364916,-2.00108 -3.501901,-3.047113 M 46.736094,85.22811 c 5.230123,0 10.778597,-0.27286 15.599399,-2.50136 1.364379,-2.04657 2.683277,-3.68383 4.36601,-5.50299 -1.500813,2.86518 -2.001087,4.45696 -2.410399,7.68599 -0.500279,0.77316 -1.046025,1.50082 -1.5463,2.27397 -3.956698,0.091 -7.913395,0.2274 -11.824612,0.31836 l -3.865737,-0.40926 -0.409316,-0.40936 c 0.04547,-0.45477 0.09095,-0.95508 0.09095,-1.45535 M 46.00842,81.63523 45.599104,77.95141 c -0.909586,5.41205 -0.682188,9.00491 -3.183548,13.82572 -1.864654,2.13753 -4.138616,4.09313 -6.730931,5.13915 0.227391,1.31891 0.318353,2.13753 0.18191,3.09259 -0.45479,3.5019 -7.458601,1.95562 -10.323796,1.81917 l 13.825704,3.54739 3.138068,-1.22794 c 0.363835,-2.00109 0.682188,-4.00218 1.046022,-6.00327 0.955067,-1.81917 1.955609,-3.59286 2.910676,-5.41204 0.181918,-1.0915 0.363835,-2.22848 0.500271,-3.31998 L 46.008427,81.63532 M 38.231479,51.1642 c -0.136436,2.637795 -0.318361,3.729302 0.864105,6.048747 1.455338,2.956155 3.274511,5.730389 4.866285,8.595583 0.181917,-1.955609 0.363834,-3.865738 0.500278,-5.821348 C 42.415576,57.076509 40.323524,54.120354 38.231479,51.1642 M 16.901694,70.99317 15.53731,73.85836 c 1.227947,4.1841 2.319451,6.8219 4.684367,10.46024 -0.409307,1.45533 -0.727669,2.13753 -1.682729,3.32 -2.092052,-0.31837 -3.911217,-0.40927 -6.003269,-0.40927 2.319443,1.81917 4.638886,3.59286 6.958329,5.41203 1.136985,-0.22741 2.27397,-0.40936 3.410947,-0.6367 l 3.410947,-3.411 C 24.678654,86.04682 23.041398,83.54545 21.449617,80.99861 19.994286,77.63315 18.447986,74.31315 16.901694,70.99317 M 137.4218,19.738013 c 1.40986,6.367096 3.22902,12.233925 3.04711,18.737463 -0.2274,8.004356 -1.77369,18.055277 -9.18681,22.876084 -8.27723,5.41203 -18.00981,2.86519 -27.10566,0.545776 3.68382,1.546289 7.41313,3.047104 11.09695,4.547934 3.45643,0.1819 6.91285,0.36386 10.36927,0.50027 2.36493,-0.6822 4.72985,-1.36438 7.0493,-2.09205 1.81916,-1.54629 3.68382,-3.047107 5.50299,-4.593406 1.36438,-2.910673 2.77423,-5.821341 4.13861,-8.732019 0.50028,-3.365466 1.04602,-6.730939 1.5463,-10.096406 l -1.22794,-9.869003 c -0.77314,-3.274511 -1.54629,-6.503537 -2.27397,-9.778048 -0.95506,-0.636701 -1.9556,-1.364379 -2.95615,-2.046565 M 13.718145,38.657394 c -3.7747811,2.455885 -5.2301196,3.501906 -4.8208038,8.049834 0.3638343,1.364378 0.7276688,2.728757 1.1369778,4.093137 0.545751,0.363859 1.046022,0.7277 1.591774,1.091506 0.636714,0.227405 1.318902,0.454763 1.955609,0.636698 1.182465,-0.272858 2.364923,-0.545776 3.54739,-0.86411 0.591225,-1.910125 1.22794,-3.774778 1.819165,-5.68491 -1.682729,0.818633 -3.365466,1.63726 -5.048195,2.501362 h -1.136985 c -0.454789,-0.682199 -0.864104,-1.364378 -1.318902,-2.001086 0.545752,-0.773148 1.04603,-1.546297 1.591774,-2.364923 0.272873,-1.500819 0.54576,-2.956153 0.864113,-4.456972 0.363834,0.09093 0.727669,0.227426 1.091503,0.318349 l 1.318895,1.046023 C 16.264988,40.249168 16.174024,39.47602 16.128543,38.657394 15.810189,38.157127 15.53731,37.65685 15.218956,37.156582 a 12.734201,12.734201 0 0 0 -0.909585,-0.727701 c -0.227391,0.773148 -0.409309,1.500812 -0.591226,2.228482 M 98.127701,2.910676 c 3.319979,3.092593 7.458609,5.775864 10.096399,9.596126 1.04602,1.455338 2.183,2.228489 0,4.27506 2.31943,-0.682204 3.18354,-0.591203 5.04819,-0.36385 3.36547,0.409278 6.54903,5.230112 6.77642,8.686539 -0.0456,0.318351 -0.95505,1.046022 -3.54739,1.773693 -0.0456,0.091 -1.45532,-0.181925 -1.45532,-0.09093 0.27285,0.727626 0.63669,0.864103 1.18245,1.227939 0.13641,0.818626 0.1819,2.092049 0.77314,3.001631 1.63726,-0.0455 3.27452,0.136424 4.8663,0.454778 0.54577,0.909581 0.45476,1.819169 0.40926,2.683273 0.6367,-0.09093 1.22794,-0.227426 1.86465,-0.318349 -0.18191,-1.409865 -0.36386,-2.819721 -0.50028,-4.275055 0.54578,-0.955067 1.0915,-1.864656 1.68273,-2.819722 -0.81862,-1.81917 -1.59177,-3.592861 -2.4104,-5.412031 -1.50081,-1.455341 -3.04711,-2.910676 -4.54792,-4.366014 h -0.45477 C 116.18294,15.917735 114.5002,14.871712 112.772,13.82569 L 104.40381,6.958322 C 102.31176,5.593939 100.21971,4.275037 98.127664,2.910661 M 103.7671,28.5155 c -0.1819,0.318349 -0.45477,0.818633 -0.77315,1.136983 1.40986,1.318902 2.09204,2.183006 2.59232,4.04766 -1.59177,0.773149 -3.13807,1.546297 -4.72984,2.319445 -1.318904,1.273417 -2.683284,2.546841 -4.002183,3.820257 -1.773696,-0.955066 -2.183011,-1.682729 -3.047114,-3.456421 -1.000537,0.27285 -1.91013,0.500276 -2.728758,0.227425 0.500278,0 0.818628,-0.136425 1.364387,-0.454779 0.864103,-0.864103 1.682724,-1.773692 2.546835,-2.637795 l 4.502484,-3.410989 c 1.000539,-0.318349 1.955599,-0.636701 2.956149,-0.955066 0.31835,-0.136424 0.95507,-0.500276 1.3189,-0.636701"
     id="path12"
     inkscape:connector-curvature="0"
     style="fill:#cccc00;stroke-width:4.54792833" />
  <path
     class="st2"
     d="m 108.08767,33.199878 c -5.00273,2.68328 -9.778052,5.412039 -12.370378,10.505719 0.04562,-6.503538 6.549018,-9.368736 12.370378,-10.505719 M 94.762236,20.420199 c -3.729304,2.546841 -6.321634,7.640521 -6.003274,12.643246 -1.227939,-4.320532 -0.77315,-8.368191 2.956158,-11.369822 0.636688,-0.318349 1.27342,-0.591201 1.864643,-0.909588 0.36387,-0.136425 0.773158,-0.272854 1.182473,-0.36385"
     id="path14"
     inkscape:connector-curvature="0"
     style="fill:#cccc00;stroke-width:4.54792833" />
  <path
     d="m 144.74396,32.153857 c -0.68219,-4.229577 -1.77369,-8.368193 -3.31998,-11.324345 a 4.275053,4.275053 0 0 0 -0.81864,-1.091499 c -0.77314,-0.773148 -1.91012,-1.455341 -3.09259,-1.864653 -1.22793,-0.409278 -2.54683,-0.500277 -3.59286,0.0455 a 2.7742365,2.7742365 0 0 0 -0.7277,0.545776 c -0.72761,0.6822 -1.31889,1.500819 -1.86464,2.364921 -0.63671,0.90959 -1.27343,1.864655 -2.04657,2.501364 -0.86411,0.773148 -2.00109,1.227939 -3.04711,1.637251 -0.45476,-1.091499 -1.00055,-2.13752 -1.59178,-3.092585 -0.7277,-1.136983 -1.5463,-2.22849 -2.4104,-3.274512 -0.7277,-0.864104 -1.45534,-1.546296 -2.22849,-2.092051 -0.77314,-0.591202 -1.54629,-1.091503 -2.50137,-1.682729 -2.45587,-1.5463 -4.5934,-3.410954 -6.73093,-5.275601 -0.95506,-0.864112 -1.9556,-1.728209 -2.91067,-2.501359 -5.09367,-4.229571 -9.86901,-6.276143 -14.962681,-6.594496 -5.04821,-0.318345 -10.414758,1.091497 -16.6909,3.7293 -3.047106,1.273421 -5.321071,2.774241 -7.276682,4.638887 -1.864648,1.72821 -3.456424,3.7293 -5.230119,6.094224 -1.000544,0.091 -1.91013,0.227421 -2.865192,0.591203 -1.000544,0.40927 -2.046569,1.046022 -3.274509,2.137526 -0.864109,0.773148 -1.728215,1.546297 -2.501361,2.319446 -0.773147,0.7277 -1.500818,1.455334 -2.228489,2.228483 -5.730392,0.909586 -10.414751,1.955608 -14.598848,3.547383 -4.275052,1.637259 -8.049833,3.956703 -11.961051,7.367647 -1.591774,1.409857 -2.956157,2.910675 -4.138616,4.456973 -1.182465,1.546288 -2.183007,3.183548 -3.092593,4.866278 -0.773151,0.86411 -1.546293,1.728213 -2.410406,2.501361 -0.818623,0.727702 -1.682728,1.36438 -2.683277,1.728215 -0.591226,0.227425 -0.818624,0.363851 -0.818624,0.31835 -0.04547,0 -0.04547,-0.091 -0.09096,-0.272848 1.409857,-1.364378 1.637256,-3.319989 1.773692,-5.275598 0.181917,0.181924 0.31836,0.454774 0.500278,0.7277 0.181917,0.272849 0.363835,0.591201 0.591225,0.864104 l 0.955068,1.227947 0.318361,-1.50082 c 0.272872,-1.273418 0.50027,-2.956155 0.181917,-4.41149 -0.227398,-0.955065 -0.636707,-1.773691 -1.409857,-2.36493 0.09095,-0.181925 0.136437,-0.36385 0.227391,-0.545775 0.227399,-0.591201 0.500278,-1.227946 0.682188,-1.819177 l 0.409316,-1.182461 -1.182467,0.27285 c -1.637255,0.272851 -5.184637,2.228483 -7.6405169,4.775323 -0.9095863,0.955066 -1.7282179,2.001088 -2.2284885,3.138071 -0.5457518,1.136984 -0.7731427,2.364923 -0.5912255,3.592862 0.1819098,1.046029 0.7276616,2.09205 1.6827291,3.092593 0.1819247,0.727701 0.3183534,1.318902 0.5002708,1.864657 0.1819172,0.636698 0.4093157,1.182459 0.6821953,1.728205 0.7276693,1.500817 1.8646537,2.410408 3.2290297,2.865196 1.091503,0.36386 2.273962,0.36386 3.410946,0.091 -0.227398,1.318897 -0.363834,2.683276 -0.409307,4.184093 -0.09095,1.955612 0,4.138614 0.227391,6.639973 0.04547,0.54578 0.136443,1.13698 0.227398,1.81917 l 0.272872,1.68274 c -0.227399,0.59119 -0.45479,1.18245 -0.636714,1.77369 -0.318354,0.90957 -0.682188,1.81916 -1.000541,2.77423 -0.727669,0.72763 -1.50082,1.45533 -2.228489,2.22848 -0.68218,0.68221 -1.409856,1.36437 -2.0920449,2.04658 -0.1364352,0 -0.4093078,0.2274 -0.5912326,0.40936 -1.4098571,1.36437 -1.6827292,1.63724 -1.2734133,4.00217 a 14.526084,14.526084 0 0 0 4.2750518,8.14078 c 1.500812,1.50083 3.911218,3.31999 6.458059,4.32054 1.455338,0.54577 2.95615,0.81863 4.366007,0.5912 -0.09096,0.2274 -0.136436,0.45476 -0.227391,0.6367 -0.227398,0.5912 -0.454789,1.22794 -0.727676,1.81917 -1.773692,3.82025 0,5.82134 2.774239,7.04929 1.364376,0.6367 3.001631,1.04602 4.547932,1.45533 0.318353,0.091 0.636707,0.1819 1.000541,0.27287 1.819173,0.50027 4.911767,1.36437 7.776961,1.54629 3.092586,0.1819 5.912308,-0.45477 6.639977,-3.22904 0.318353,-1.0915 0.454789,-1.9556 0.545751,-2.77424 0.04547,-0.77314 0.04547,-1.54629 -0.04547,-2.50135 0.864105,-1.95561 1.27342,-2.50136 1.910134,-3.45643 0.136436,-0.1819 0.272873,-0.40926 0.318354,-0.50028 0.682188,-1.04601 1.000546,-1.77368 1.136984,-2.59231 0.136439,-0.77315 0,-1.59177 -0.13644,-2.77423 0,-0.13641 -0.0455,-0.27287 -0.0455,-0.50028 1.819173,0.22741 3.592863,0.36385 5.412035,0.36385 0.909585,0 1.819172,0 2.728758,-0.0909 -0.227407,0.13641 -0.454812,0.22741 -0.727671,0.36386 -0.09095,0.0456 -0.227406,0.1364 -0.318358,0.18191 -2.410399,1.22795 -2.501358,3.59288 -1.72821,5.95778 0.682189,2.18301 2.092045,4.36603 2.956154,5.7304 1.819167,2.81971 3.592862,5.23012 5.730389,6.54901 2.228484,1.36438 4.775326,1.5463 8.049835,-0.27285 1.682732,-0.90959 2.183002,-1.81917 2.910673,-3.0926 0.227406,-0.36386 0.454812,-0.77315 0.72767,-1.18246 0.682185,-0.45476 2.410398,-1.86464 4.093127,-3.27451 0.591202,-0.45476 1.136984,-0.95506 1.81918,-1.45533 0.454758,0.31836 1.000541,0.54577 1.637247,0.7277 0.864105,0.18191 1.864647,0.27286 3.047112,0.36386 0.909587,0.0456 3.865744,0.0456 5.730398,0.0456 h 1.364375 c 1.955601,0 3.54738,-0.0909 4.729843,-0.77315 1.273418,-0.7277 2.046567,-2.00109 2.183011,-4.32053 0.09087,-1.00054 0.09087,-1.63725 -0.04562,-2.27397 -0.136408,-0.5912 -0.40926,-1.13698 -0.81864,-1.95561 -0.04562,-1.00054 -0.04562,-2.00109 -0.09096,-3.00163 -0.04562,-1.04602 -0.04562,-2.09205 -0.09087,-3.18355 -0.04562,-1.22806 -0.181806,-2.2741 -0.409269,-3.22917 a 21.193348,21.193348 0 0 0 -1.091427,-3.09275 c -0.318361,-0.77314 -0.591195,-1.45533 -0.864112,-2.18301 l -0.682195,0.27286 0.09087,-0.0456 0.591195,-0.2274 c -0.409315,-1.0915 -0.818603,-2.18301 -1.364353,-3.31999 0.04562,-0.2274 0.09087,-0.45476 0.09087,-0.72769 0.363852,0.36385 0.727695,0.68219 1.091501,1.04602 l 1.63726,1.54629 c 1.227936,1.18246 2.364918,2.27397 3.683835,3.04712 1.36436,0.81863 2.91067,1.27342 4.91175,1.18246 2.09205,-0.0909 4.32053,-0.95506 6.1397,-2.31945 1.77369,-1.3189 3.18355,-3.09259 3.82026,-5.0482 0.18191,-0.54578 0.36386,-1.13698 0.50027,-1.68274 l 0.40936,-1.36436 c 2.91068,0.50026 6.04875,0.63669 9.09586,0.31835 2.91068,-0.31835 5.73039,-1.04602 8.18627,-2.36492 3.59287,-1.91013 6.27613,-4.729843 8.18628,-8.049833 2.13752,-3.729301 3.36546,-8.140788 3.82026,-12.688724 0.36385,-3.501898 0.1819,-8.459146 -0.59121,-13.234469 z m -37.88424,30.562082 c -1.68274,-0.545775 -2.8652,-1.409855 -4.32053,-2.319445 0.40936,1.819172 0.5912,3.729301 0.0456,5.548476 -0.86411,2.8652 -2.22848,7.59504 1.68273,8.45915 1.50082,0.31836 2.18301,0.27285 4.27506,-0.81863 -1.68274,0.36386 -2.54684,0.27286 -3.7293,0.091 a 2.3876626,2.3876626 0 0 1 -1.91016,-1.6373 c 0.36387,0.27286 0.95506,0.40927 2.00109,0.68221 2.91068,0.6822 5.63943,-0.68221 6.18519,-2.68328 0.31836,-1.18247 0.27285,-1.7737 0.90958,-3.41095 0.5912,0.1819 1.22794,0.36386 1.86465,0.50028 l -1.0916,3.50191 c -0.90958,3.04711 -4.54793,5.50298 -7.77696,5.41203 -2.95615,-0.0456 -4.82079,-1.91013 -6.867361,-3.7293 -1.409862,-1.27343 -2.774242,-2.45589 -4.093141,-3.63835 -3.683828,-1.18246 -6.639978,-2.50136 -10.050925,-5.048202 2.410406,2.865202 4.093143,4.456972 7.458608,5.866832 -0.500278,5.0482 -2.228488,8.68655 -3.7293,13.50735 -0.682203,2.18301 -6.003278,10.91503 -7.458607,11.77913 -1.046031,0.59121 -7.640516,6.1397 -8.868462,6.91286 -0.909585,1.22794 -1.728209,2.91067 -3.138069,3.63835 -4.229572,2.22847 -6.958329,-2.04658 -9.232294,-5.68492 -1.046025,-1.63726 -3.911222,-6.41258 -1.409861,-7.73147 2.364923,-1.27343 3.683826,-2.13753 6.139706,-3.72931 0.36386,0.63669 0.955067,1.27343 1.364379,1.91013 l -0.272858,-2.13753 c -0.136454,-1.27344 -0.136454,-2.31945 -0.0456,-3.63835 l 0.272859,-3.77478 c -0.363811,1.27341 -1.091502,2.54683 -1.455337,3.82025 -0.136454,0.50028 -0.272859,0.90959 -0.318359,1.3189 -5.457412,1.09151 -10.82397,1.18247 -16.281484,0.22741 -0.363835,-2.00109 -0.773151,-4.09314 -1.136985,-5.59396 -0.09095,1.68274 -0.04547,6.32163 -0.04547,8.95942 0,2.00109 -0.09095,2.72876 -1.136985,4.4115 -0.955067,1.59178 -1.409856,1.95562 -2.774239,4.68436 0.136443,1.72821 0.136443,2.8652 -0.318354,4.45697 -0.77315,2.68328 -8.413668,0.59121 -10.414757,0.0456 -2.501316,-0.68232 -7.594992,-1.68287 -6.32157,-5.00285 1.136976,-2.91068 1.864645,-6.00327 2.410397,-10.05092 -4.547924,-6.54898 -8.777494,-15.55388 -9.596118,-23.51275 -0.636714,-6.185186 -0.27288,-9.959964 1.091495,-13.780223 2.137534,-6.003269 5.093684,-11.187905 9.823533,-15.326519 6.412578,-5.639434 12.415839,-7.867923 21.784575,-9.323257 -2.273963,2.546839 -4.50245,5.184635 -6.912849,8.049834 -2.455887,2.910675 -3.911225,5.821351 -5.502999,9.004899 -2.183,4.36601 -2.137525,6.048747 0.727677,9.91448 2.455879,3.319989 3.820255,4.820808 4.866278,8.049835 -0.90958,1.819176 -1.22794,3.365471 -1.500812,5.912311 3.00163,3.31999 5.275593,5.54848 8.186271,6.27614 2.865196,0.68221 5.275595,0.54578 7.867914,-0.77314 5.730394,-2.91068 11.00599,-6.68546 17.464045,-6.86738 3.001632,-7.322166 2.683278,-13.461871 1.22794,-20.602113 -1.000541,-4.866286 -1.364384,-9.459698 -1.682729,-14.371462 -1.22794,5.093681 -1.455336,9.550653 -0.545775,14.644334 1.091497,6.094223 1.91012,12.870641 -1.091501,18.237195 -5.821351,0.454763 -10.824075,4.002176 -16.09967,6.730926 -2.137506,1.09151 -4.320509,1.18247 -6.639955,0.54576 -2.183006,-0.59123 -3.638346,-2.04656 -5.95779,-4.72984 -0.04547,-2.728762 0.591234,-3.956702 1.819174,-6.412587 2.001089,-3.956698 4.184097,-7.595037 6.639977,-11.506256 -2.956154,3.59286 -5.775873,6.549015 -8.095316,10.187363 -0.909586,-2.546842 -2.182999,-3.820264 -4.275052,-6.685456 -2.046563,-2.774244 -2.273962,-4.002182 -0.727669,-7.276693 1.546301,-3.229026 2.865195,-6.094225 5.503,-8.959416 4.547926,-4.911762 8.73202,-10.414756 13.734743,-15.281041 2.728758,-2.637804 3.820258,-2.54684 7.413121,-3.092595 3.229033,-0.500278 6.412579,-1.091503 9.73257,-1.864646 -3.183553,0.318345 -6.321622,0.409278 -9.414216,0.50027 h -0.09095 c 3.047112,-3.911217 4.866284,-6.094224 9.823521,-8.277224 12.279404,-5.321082 20.056365,-5.912307 29.697986,2.183 2.54684,2.137534 4.72984,4.184097 7.27669,6.00327 -0.90959,0.09093 -1.72822,0.227428 -2.77424,0.636707 1.27341,-0.227429 2.72875,0 4.04765,0.22742 0.36387,0.227428 0.77315,0.454774 1.13699,0.727706 1.77368,1.046021 2.81971,1.637251 4.00216,3.319988 1.27343,1.773692 2.36493,3.547384 3.27451,5.502993 -0.63669,-0.227426 -1.13697,-0.409351 -1.59177,-0.545775 a 2.9697975,2.9697975 0 0 0 -1.09151,-0.272848 3.4791655,3.4791655 0 0 0 -2.13751,0.500275 c -0.0456,0 -0.0456,0.0455 -0.091,0.0455 -1.00055,0.500275 -2.50137,1.046028 -3.54739,1.182461 0.50027,0.181925 1.68274,0.227426 2.22848,0.0455 0.0911,-0.0455 0.13641,-0.0455 0.22742,-0.09093 -0.22742,0.409278 -0.40937,0.909589 -0.45477,1.409857 -0.0456,0.6822 0.091,1.318902 0.36386,1.910132 0.0909,0.227425 0.2274,0.409351 0.36386,0.545775 -0.45477,0.181925 -0.95507,0.36385 -1.45534,0.5912 2.27396,-0.363849 4.36601,-0.409277 6.5945,-0.136423 0.1364,0.6822 0.31835,1.455342 0.45476,2.228489 -0.27286,0 -0.54578,0.0455 -0.81863,0.0455 h -0.0456 c -1.04603,-0.86411 -2.22848,-0.6822 -3.82026,-0.318349 -4.91176,1.136983 -3.7293,3.865741 -6.00327,8.004356 2.31944,-2.865198 2.18301,-5.821351 5.95779,-6.730932 0.86411,-0.227427 1.50081,-0.454774 2.09204,-0.36385 -1.0915,0.545776 -2.00108,1.455334 -2.36492,2.501363 -1.04601,2.956152 -0.40936,5.457508 -1.54629,8.186265 1.40985,-2.455877 1.50081,-4.866285 2.77423,-7.458603 0.45477,-0.909581 2.13753,-2.4104 3.18355,-2.455877 h 0.86411 c 0.27285,1.637252 0.40926,3.274504 0.31836,4.638882 -0.1819,2.455885 -0.81862,6.13971 -1.18246,7.504088 1.27343,-1.637259 1.86466,-5.139165 2.45588,-7.64052 0.59121,-2.54684 0.45477,-5.639434 -0.0909,-8.41367 -0.72762,-3.774778 3.18356,-3.183548 5.45751,-4.95724 1.68274,-1.318901 2.81973,-3.410951 4.32054,-4.911763 1.50081,-1.455342 3.91122,0.682201 4.50244,2.13752 2.59233,6.230665 3.77478,16.05419 3.09259,22.37581 -0.77308,7.049278 -4.18402,14.780764 -10.41468,18.237188 -7.95888,4.456966 -17.32761,1.773696 -25.24101,-0.909582 z M 95.580857,94.09666 c -0.272862,2.91066 -1.227936,3.09258 -3.774772,3.0471 -1.182469,0 -5.775882,-0.0456 -6.95834,-0.13641 -1.682729,-0.13641 -2.592315,-0.27286 -3.092594,-0.68219 2.592323,-1.91014 7.049285,-9.82353 7.913405,-12.5523 0.909579,-2.86519 1.91012,-5.36655 2.637789,-8.04983 0.363861,1.09151 0.591204,2.22849 1.09151,3.41095 0.818621,1.9556 1.227936,3.18356 1.318899,5.32108 0.04562,2.22848 0.136399,4.45697 0.181899,6.68546 0.682194,1.27341 0.81863,1.54628 0.682194,2.95615 z M 17.038129,71.99372 c 1.637256,5.73038 4.456969,11.36982 7.595044,16.09966 v 0.0909 c -0.181917,0.81869 -0.409315,1.59184 -0.909586,2.22855 -2.228489,3.00163 -7.913398,-1.40986 -9.550653,-3.09259 -1.819172,-1.81918 -3.001631,-4.00218 -3.27451,-6.04876 -0.227391,-1.5008 0,-1.54628 1.046029,-2.59231 1.409858,-1.40986 2.819714,-2.81972 4.18409,-4.27505 0.318353,-0.77315 0.591233,-1.59178 0.909586,-2.4104 z M 13.900062,35.974113 c -0.409316,0.90959 -0.727676,1.591782 -0.909586,2.319445 -0.909587,3.092594 0.409308,5.821351 -2.410406,8.049834 1.318903,2.637803 1.273421,3.729301 4.320533,2.501363 1.182459,-0.454775 2.137526,-1.136984 3.001631,-1.910132 -0.409308,1.091506 -0.818624,2.183003 -1.136977,3.319986 -0.04547,0.181954 -0.136443,0.363859 -0.181925,0.545779 -2.182999,0.909562 -5.048202,1.500794 -6.139698,-0.77317 -0.5457516,-1.136985 -0.8186313,-2.228484 -1.22794,-3.638341 -3.6383449,-3.729301 1.72821,-8.641065 4.684368,-10.414764 z m 1.72821,3.956705 c -0.454789,-0.454776 -0.818623,-0.727701 -1.364376,-0.682201 0.04547,-0.363851 0.09096,-0.727701 0.181918,-1.091499 0.04547,-0.181925 0.09095,-0.363851 0.136436,-0.500275 0.77315,0.409351 1.000548,1.182461 1.046022,2.273967 z M 123.5961,25.968677 c 0.13641,0.272849 0.27287,0.591201 0.40927,0.864104 -0.0909,0.09093 -0.22741,0.181925 -0.31836,0.272849 a 3.6701784,3.6701784 0 0 0 -0.77315,-1.091499 c 0.27286,0 0.45477,0 0.68219,-0.0455 z M 19.675926,42.932448 Z M 7.9422736,46.889145 Z M 47.327334,88.0479 Z m 32.472209,9.68709 z M 92.98854,72.6759 Z m -78.724644,-25.286479 -0.04547,-0.0455 z M 140.87823,57.804179 Z M 1.5296957,46.52531 C 2.1209211,40.021772 3.3488607,37.247538 7.9877549,32.335774 2.2118836,36.428912 0.75654543,38.248081 1.5296957,46.52531"
     id="path16"
     inkscape:connector-curvature="0"
     style="stroke-width:4.54792833" />
  <path
     d="M 0.07435761,41.204234 C 0.71106426,38.293558 1.3022972,37.202059 3.1214698,34.791651 0.16531247,36.838224 -0.19852205,37.65685 0.07435761,41.204234 M 67.883972,0.500278 c -3.456424,0.818624 -4.138613,1.45533 -5.184639,4.866285 1.682734,-2.455887 2.637801,-3.274511 5.184639,-4.866285"
     id="path18"
     inkscape:connector-curvature="0"
     style="stroke-width:4.54792833" />
  <path
     d="M 73.341487,0 C 66.474116,1.682737 64.47303,2.865195 62.153583,10.824066 65.064256,5.002721 67.292744,2.865195 73.341487,0 m 14.780768,29.015785 c 0.7277,-3.229025 2.046565,-6.367096 7.049296,-8.777504 -6.639987,1.682737 -7.867919,4.50245 -7.049296,8.777504 m 42.523125,0.227427 c 3.95671,-1.409857 5.86683,-4.593405 6.82189,-8.322707 -1.54628,3.138071 -3.95669,5.775867 -7.18571,7.36764 -1.72821,0.864112 -2.86521,0.545776 -4.77533,0.363851 1.91012,0.591201 3.18355,1.318902 5.13915,0.591201 m -26.96921,3.183548 a 4.5160933,4.5160933 0 0 0 -2.50136,-2.27396 c 0.95507,-0.500275 1.91013,-1.046021 2.68327,-1.728214 -2.183,1.000543 -4.729832,0.773148 -6.594491,2.001087 -1.63726,1.091507 -3.911225,4.63889 -5.593951,6.139709 1.227939,-0.454774 2.364921,-1.273425 3.456422,-2.137527 0,0.6367 0.136408,1.273416 0.454769,1.910124 0.45476,0.909589 1.136973,1.591774 1.955594,2.046573 -0.591195,0.773148 -1.091501,1.682729 -1.455334,2.683272 3.183557,-3.774778 7.822431,-6.639969 12.142971,-7.822431 -1.22795,0 -2.6378,0.227427 -4.09314,0.682201 -0.0909,-0.545775 -0.2274,-1.046021 -0.45476,-1.500819 m -4.547931,28.515518 c -0.136407,0.955068 -0.363861,2.183003 -0.500278,3.183546 0.409361,-1.091506 0.909584,-2.410399 1.409859,-3.456424 0.50028,-1.136977 0.81863,-1.22794 1.86465,-1.819171 0.77315,-0.409264 2.18301,-1.000543 2.91068,-1.409856 -0.77314,0.136404 -2.18301,0.409361 -3.00163,0.545775 -2.13753,0.363861 -2.364929,0.909582 -2.683281,2.956155 M 63.063164,23.23992 c -2.45588,2.4104 -4.820803,10.733107 -5.593955,14.053095 1.182464,-2.774235 4.184095,-10.460234 6.503542,-12.46132 0.636707,-0.545776 1.091499,-0.864111 1.546293,-1.136984 -1.637252,2.774236 -1.546293,3.456429 -0.955063,7.140245 0.500275,-3.774779 1.773691,-5.230114 3.911217,-8.004349 2.319447,-0.5912 4.502449,-1.273424 6.91285,-2.22849 -2.683274,0.318349 -5.412031,0.591201 -8.095308,0.818626 -2.22849,0.272849 -2.59232,0.227426 -4.229576,1.819177"
     id="path20"
     inkscape:connector-curvature="0"
     style="stroke-width:4.54792833" />
  <path
     class="st1"
     d="m 96.444959,37.383978 c -0.454769,-0.955066 -0.04562,-2.046573 0.909584,-2.501363 0.955075,-0.454773 2.046575,-0.0455 2.501372,0.864104 0.04562,0.09093 0.09087,0.181925 0.09087,0.272847 -0.909584,0.682201 -1.728214,1.455335 -2.41039,2.364923 a 2.3330875,2.3330875 0 0 1 -1.09151,-1.000544 m 20.874995,-8.095318 c 0.0909,-0.773149 0.72763,-1.364379 1.50082,-1.273416 0.77314,0.09093 1.36437,0.773148 1.27341,1.546296 0,0.181925 -0.0456,0.318349 -0.13639,0.454773 -0.72771,0.136425 -1.40987,0.318349 -2.13753,0.591202 -0.27287,-0.31835 -0.54578,-0.909582 -0.50028,-1.318902"
     id="path22"
     inkscape:connector-curvature="0"
     style="fill:#ffffcc;stroke-width:4.54792833" />
</svg>
