<?xml version="1.0" encoding="UTF-8" standalone="no"?>
<svg
   xmlns:dc="http://purl.org/dc/elements/1.1/"
   xmlns:cc="http://creativecommons.org/ns#"
   xmlns:rdf="http://www.w3.org/1999/02/22-rdf-syntax-ns#"
   xmlns:svg="http://www.w3.org/2000/svg"
   xmlns="http://www.w3.org/2000/svg"
   xmlns:sodipodi="http://sodipodi.sourceforge.net/DTD/sodipodi-0.dtd"
   xmlns:inkscape="http://www.inkscape.org/namespaces/inkscape"
   width="297mm"
   height="210mm"
   version="1.1"
   id="svg8"
   sodipodi:docname="RedHat.svg"
   inkscape:version="0.92.2 (5c3e80d, 2017-08-06)">
  <metadata
     id="metadata14">
    <rdf:RDF>
      <cc:Work
         rdf:about="">
        <dc:format>image/svg+xml</dc:format>
        <dc:type
           rdf:resource="http://purl.org/dc/dcmitype/StillImage" />
        <dc:title></dc:title>
      </cc:Work>
    </rdf:RDF>
  </metadata>
  <defs
     id="defs12">
    <clipPath
       clipPathUnits="userSpaceOnUse"
       id="clipPath4520">
      <rect
         style="fill:#b0b7b9;fill-opacity:1;stroke-width:4.59892368;stroke-linecap:round;stroke-linejoin:miter;stroke-miterlimit:2.5999999;stroke-dasharray:none"
         id="rect4522"
         width="223.48959"
         height="160.54762"
         x="-6.385417"
         y="-6.4255958" />
    </clipPath>
  </defs>
  <sodipodi:namedview
     pagecolor="#ffffff"
     bordercolor="#666666"
     borderopacity="1"
     objecttolerance="10"
     gridtolerance="10"
     guidetolerance="10"
     inkscape:pageopacity="0"
     inkscape:pageshadow="2"
     inkscape:window-width="2560"
     inkscape:window-height="1440"
     id="namedview10"
     showgrid="true"
     inkscape:zoom="0.274062"
     inkscape:cx="-476.17037"
     inkscape:cy="-539.55153"
     inkscape:window-x="1920"
     inkscape:window-y="0"
     inkscape:window-maximized="0"
     inkscape:current-layer="svg8"
     units="mm">
    <inkscape:grid
       type="xygrid"
       id="grid819" />
  </sodipodi:namedview>
  <g
     id="g6"
     transform="matrix(4.8473043,0,0,5.3033905,64.334366,11.485452)"
     style="fill:none"
     clip-path="url(#clipPath4520)">
    <path
       d="m 127.47,83.49 c 12.51,0 30.61,-2.58 30.61,-17.46 a 14,14 0 0 0 -0.31,-3.42 L 150.32,30.25 C 148.6,23.13 147.09,19.9 134.59,13.65 124.89,8.69 103.76,0.5 97.51,0.5 91.69,0.5 90,8 83.06,8 76.38,8 71.42,2.4 65.17,2.4 c -6,0 -9.91,4.09 -12.93,12.5 0,0 -8.41,23.72 -9.49,27.16 A 6.43,6.43 0 0 0 42.53,44 c 0,9.22 36.3,39.45 84.94,39.45 M 160,72.07 c 1.73,8.19 1.73,9.05 1.73,10.13 0,14 -15.74,21.77 -36.43,21.77 C 78.54,104 37.58,76.6 37.58,58.49 a 18.45,18.45 0 0 1 1.51,-7.33 C 22.27,52 0.5,55 0.5,74.22 c 0,31.48 74.59,70.28 133.65,70.28 45.28,0 56.7,-20.48 56.7,-36.65 0,-12.72 -11,-27.16 -30.83,-35.78"
       id="path2"
       inkscape:connector-curvature="0"
       style="fill:#ee0000" />
    <path
       d="m 160,72.07 c 1.73,8.19 1.73,9.05 1.73,10.13 0,14 -15.74,21.77 -36.43,21.77 C 78.54,104 37.58,76.6 37.58,58.49 a 18.45,18.45 0 0 1 1.51,-7.33 L 42.75,42.1 A 6.43,6.43 0 0 0 42.53,44 c 0,9.22 36.3,39.45 84.94,39.45 12.51,0 30.61,-2.58 30.61,-17.46 a 14,14 0 0 0 -0.31,-3.42 z M 579.74,92.8 c 0,11.89 7.15,17.67 20.19,17.67 a 52.11,52.11 0 0 0 11.89,-1.68 V 95 a 24.84,24.84 0 0 1 -7.68,1.16 c -5.37,0 -7.36,-1.68 -7.36,-6.73 V 68.3 h 15.56 V 54.1 h -15.56 v -18 l -17,3.68 V 54.1 h -11.29 v 14.2 h 11.25 z m -53,0.32 c 0,-3.68 3.69,-5.47 9.26,-5.47 a 43.12,43.12 0 0 1 10.1,1.26 v 7.15 a 21.51,21.51 0 0 1 -10.63,2.63 c -5.46,0 -8.73,-2.1 -8.73,-5.57 z m 5.2,17.56 c 6,0 10.84,-1.26 15.36,-4.31 v 3.37 h 16.82 V 74.08 c 0,-13.56 -9.14,-21 -24.39,-21 -8.52,0 -16.94,2 -26,6.1 l 6.1,12.52 c 6.52,-2.74 12,-4.42 16.83,-4.42 7,0 10.62,2.73 10.62,8.31 v 2.73 a 49.53,49.53 0 0 0 -12.62,-1.58 c -14.31,0 -22.93,6 -22.93,16.73 0,9.78 7.78,17.24 20.19,17.24 z m -92.46,-0.91 h 18.09 V 80.92 h 30.29 v 28.82 H 506 V 36.12 H 487.93 V 64.41 H 457.64 V 36.12 h -18.09 z m -68.86,-27.9 c 0,-8 6.31,-14.1 14.62,-14.1 A 17.22,17.22 0 0 1 397,72.09 V 91.54 A 16.36,16.36 0 0 1 385.24,96 c -8.2,0 -14.62,-6.1 -14.62,-14.09 z m 26.61,27.91 h 16.83 V 32.44 l -17,3.68 v 20.93 a 28.3,28.3 0 0 0 -14.2,-3.68 c -16.19,0 -28.92,12.51 -28.92,28.5 a 28.25,28.25 0 0 0 28.4,28.6 25.12,25.12 0 0 0 14.93,-4.83 z M 320,67 c 5.36,0 9.88,3.47 11.67,8.83 h -23.2 C 310.15,70.3 314.36,67 320,67 Z m -28.67,15 c 0,16.2 13.25,28.82 30.28,28.82 9.36,0 16.2,-2.53 23.25,-8.42 l -11.26,-10 c -2.63,2.74 -6.52,4.21 -11.14,4.21 a 14.39,14.39 0 0 1 -13.68,-8.83 h 39.65 v -4.23 c 0,-17.67 -11.88,-30.39 -28.08,-30.39 a 28.57,28.57 0 0 0 -29,28.81 z M 262,51.58 c 6,0 9.36,3.78 9.36,8.31 0,4.53 -3.36,8.31 -9.36,8.31 H 244.11 V 51.58 Z m -36,58.16 h 18.09 V 82.92 h 13.77 l 13.89,26.82 H 292 L 275.8,80.29 a 22.27,22.27 0 0 0 13.88,-20.72 c 0,-13.25 -10.41,-23.45 -26,-23.45 H 226 Z"
       id="path4"
       inkscape:connector-curvature="0"
       style="fill:#000000" />
  </g>
</svg>
