<?xml version="1.0" encoding="UTF-8" standalone="no"?>
<svg
   xmlns:dc="http://purl.org/dc/elements/1.1/"
   xmlns:cc="http://creativecommons.org/ns#"
   xmlns:rdf="http://www.w3.org/1999/02/22-rdf-syntax-ns#"
   xmlns:svg="http://www.w3.org/2000/svg"
   xmlns="http://www.w3.org/2000/svg"
   xmlns:sodipodi="http://sodipodi.sourceforge.net/DTD/sodipodi-0.dtd"
   xmlns:inkscape="http://www.inkscape.org/namespaces/inkscape"
   id="Layer_1"
   viewBox="0 0 107.47623 92.06984"
   version="1.1"
   sodipodi:docname="redis.svg"
   inkscape:version="0.92.2 (5c3e80d, 2017-08-06)"
   width="107.47623"
   height="92.069839">
  <metadata
     id="metadata29">
    <rdf:RDF>
      <cc:Work
         rdf:about="">
        <dc:format>image/svg+xml</dc:format>
        <dc:type
           rdf:resource="http://purl.org/dc/dcmitype/StillImage" />
      </cc:Work>
    </rdf:RDF>
  </metadata>
  <defs
     id="defs27" />
  <sodipodi:namedview
     pagecolor="#ffffff"
     bordercolor="#666666"
     borderopacity="1"
     objecttolerance="10"
     gridtolerance="10"
     guidetolerance="10"
     inkscape:pageopacity="0"
     inkscape:pageshadow="2"
     inkscape:window-width="1070"
     inkscape:window-height="466"
     id="namedview25"
     showgrid="false"
     inkscape:zoom="2.6074563"
     inkscape:cx="26.427827"
     inkscape:cy="43.701516"
     inkscape:window-x="1920"
     inkscape:window-y="194"
     inkscape:window-maximized="0"
     inkscape:current-layer="Layer_1" />
  <style
     id="style2">.st0{fill:#a41e11}.st1{fill:#d82c20}.st2{fill:#fff}.st3{fill:#7a0c00}.st4{fill:#ad2115}</style>
  <path
     class="st0"
     d="m 103.27111,70.999355 c -5.730672,2.995576 -35.425952,15.2058 -41.775263,18.494417 -6.316766,3.28863 -9.833302,3.256068 -14.847645,0.879143 C 41.666432,87.995989 10.050082,75.232235 4.3519791,72.49714 1.5192031,71.129595 0.02141112,69.989973 0.02141112,68.915471 V 58.040233 c 0,0 41.15660888,-8.954169 47.79897488,-11.331092 6.642362,-2.376925 8.95417,-2.474607 14.587153,-0.390732 5.665549,2.08388 39.463461,8.172714 45.063891,10.22403 V 67.25488 c 0,1.04194 -1.30243,2.214122 -4.20032,3.744475 z"
     id="path4"
     inkscape:connector-curvature="0"
     style="fill:#a41e11;stroke-width:3.25606084" />
  <path
     class="st1"
     d="M 103.27111,60.15667 C 97.540438,63.152246 67.845158,75.362474 61.495847,78.651094 55.179081,81.93972 51.662545,81.90716 46.648202,79.530234 41.666432,77.153309 10.050082,64.35699 4.3519791,61.654459 c -5.698111,-2.73509 -5.828352,-4.591044 -0.227887,-6.772606 5.600422,-2.181562 37.0214089,-14.522029 43.6637769,-16.898955 6.642365,-2.376925 8.954168,-2.474607 14.587151,-0.390731 5.665549,2.08388 35.165459,13.838258 40.76588,15.857014 5.63299,2.01876 5.86092,3.711911 0.13027,6.707487 z"
     id="path6"
     inkscape:connector-curvature="0"
     style="fill:#d82c20;stroke-width:3.25606084" />
  <path
     class="st0"
     d="M 103.27111,53.286384 C 97.540438,56.281958 67.845158,68.49219 61.495847,71.780807 55.179081,75.069433 51.662545,75.036873 46.648202,72.659948 41.666432,70.283023 10.050082,57.519262 4.3519791,54.784171 1.5192031,53.416626 0.02141112,52.277004 0.02141112,51.202504 V 40.327261 c 0,0 41.15660888,-8.954168 47.79897488,-11.331091 6.642362,-2.376926 8.95417,-2.474607 14.587153,-0.39073 5.665549,2.083878 39.463461,8.172712 45.063891,10.22403 v 10.712439 c 0,1.04194 -1.30243,2.246682 -4.20032,3.744475 z"
     id="path8"
     inkscape:connector-curvature="0"
     style="fill:#a41e11;stroke-width:3.25606084" />
  <path
     class="st1"
     d="M 103.27111,42.443701 C 97.540438,45.439277 67.845158,57.649505 61.495847,60.938127 55.179081,64.226746 51.662545,64.194186 46.648202,61.817261 41.666432,59.440338 10.050082,46.644019 4.3519791,43.94149 -1.3461319,41.206398 -1.4763729,39.350443 4.1240501,37.168882 9.7244721,34.987322 41.145461,22.64685 47.787824,20.269926 c 6.642367,-2.376923 8.954172,-2.474607 14.587153,-0.390731 5.665551,2.08388 35.165461,13.838259 40.765883,15.857017 5.63299,2.018758 5.86091,3.711909 0.13027,6.707485 z"
     id="path10"
     inkscape:connector-curvature="0"
     style="fill:#d82c20;stroke-width:3.25606084" />
  <path
     class="st0"
     d="M 103.27111,34.9222 C 97.540438,37.917776 67.845158,50.128004 61.495847,53.416626 55.179081,56.705247 51.662545,56.672685 46.648202,54.295762 41.666432,51.918837 10.050082,39.12252 4.3519791,36.419989 1.5192031,35.052444 0.02141112,33.912822 0.02141112,32.838322 V 21.963078 c 0,0 41.15660888,-8.954167 47.79897488,-11.331093 6.642362,-2.376923 8.95417,-2.4746048 14.587153,-0.390731 5.665549,2.05132 39.463461,8.172714 45.063891,10.191472 v 10.712441 c 0,1.0745 -1.30243,2.246682 -4.20032,3.777033 z"
     id="path12"
     inkscape:connector-curvature="0"
     style="fill:#a41e11;stroke-width:3.25606084" />
  <path
     class="st1"
     d="M 103.27111,24.046958 C 97.540438,27.042534 67.845158,39.252762 61.495847,42.541383 55.179081,45.830005 51.662545,45.797443 46.648202,43.420519 41.63387,41.043594 10.050082,28.279837 4.3519791,25.544745 -1.3461319,22.809654 -1.4763729,20.953699 4.1240911,18.772137 9.7245141,16.590575 41.145501,4.2501058 47.787869,1.8731824 c 6.642365,-2.37692537 8.954168,-2.47460932 14.587151,-0.3907315 5.698111,2.051318 35.230581,13.8056991 40.83101,15.8570171 5.56786,2.051318 5.79579,3.744471 0.0649,6.707485 z"
     id="path14"
     inkscape:connector-curvature="0"
     style="fill:#d82c20;stroke-width:3.25606084" />
  <path
     class="st2"
     d="m 67.812598,13.594999 -9.312331,0.976823 -2.08388,5.014332 -3.353739,-5.600425 -10.745006,-0.976818 8.009909,-2.865333 -2.409484,-4.4608029 7.521506,2.9304542 7.065646,-2.3118034 -1.888512,4.5910471 z m -11.949744,24.322777 -17.3548,-7.195894 24.876305,-3.80959 z"
     id="path16"
     inkscape:connector-curvature="0"
     style="fill:#ffffff;stroke-width:3.25606084" />
  <ellipse
     class="st2"
     cx="31.800575"
     cy="21.539785"
     rx="13.31729"
     ry="5.1445761"
     id="ellipse18"
     style="fill:#ffffff;stroke-width:3.25606084" />
  <path
     class="st3"
     d="m 78.818082,14.962549 14.749966,5.828346 -14.717406,5.828349 z"
     id="path20"
     inkscape:connector-curvature="0"
     style="fill:#7a0c00;stroke-width:3.25606084" />
  <path
     class="st4"
     d="m 62.537779,21.409548 16.280303,-6.446999 0.03284,11.656695 -1.595463,0.618653 z"
     id="path22"
     inkscape:connector-curvature="0"
     style="fill:#ad2115;stroke-width:3.25606084" />
</svg>
